<svg width="24" height="24" viewBox="0 0 24 24" fill="none" xmlns="http://www.w3.org/2000/svg">
<path d="M12.0001 13.4318C12.6026 13.4318 13.091 12.9434 13.091 12.3409C13.091 11.7384 12.6026 11.25 12.0001 11.25C11.3976 11.25 10.9092 11.7384 10.9092 12.3409C10.9092 12.9434 11.3976 13.4318 12.0001 13.4318Z" fill="#545454"/>
<path d="M16.875 13.5C17.4963 13.5 18 12.9963 18 12.375C18 11.7537 17.4963 11.25 16.875 11.25C16.2537 11.25 15.75 11.7537 15.75 12.375C15.75 12.9963 16.2537 13.5 16.875 13.5Z" fill="#545454"/>
<path d="M6.90902 13.4318C7.51152 13.4318 7.99993 12.9434 7.99993 12.3409C7.99993 11.7384 7.51152 11.25 6.90902 11.25C6.30653 11.25 5.81812 11.7384 5.81812 12.3409C5.81812 12.9434 6.30653 13.4318 6.90902 13.4318Z" fill="#545454"/>
<path d="M12 24C9.62653 24 7.30635 23.2962 5.33291 21.9775C3.35947 20.6588 1.8214 18.7845 0.91322 16.5916C0.00503941 14.3988 -0.23246 11.9859 0.230759 9.65803C0.693977 7.33019 1.83711 5.192 3.51558 3.51387C5.19405 1.83574 7.33247 0.693037 9.6604 0.230288C11.9883 -0.232462 14.4012 0.00552231 16.5939 0.914144C18.7865 1.82277 20.6605 3.36121 21.9788 5.33492C23.2971 7.30863 24.0005 9.62894 24 12.0024C23.9962 15.1836 22.7306 18.2334 20.4809 20.4826C18.2312 22.7318 15.1812 23.9968 12 24ZM12 1.20919C9.86559 1.20919 7.77911 1.8421 6.0044 3.02789C4.22969 4.21368 2.84645 5.89909 2.02959 7.871C1.21273 9.84292 0.99894 12.0128 1.41526 14.1062C1.83157 16.1996 2.85929 18.1226 4.36846 19.6319C5.87763 21.1412 7.80047 22.1692 9.89384 22.5857C11.9872 23.0023 14.1571 22.7887 16.1291 21.9721C18.1011 21.1555 19.7867 19.7724 20.9727 17.9978C22.1586 16.2232 22.7918 14.1368 22.792 12.0024C22.7892 9.14097 21.6513 6.39752 19.628 4.37406C17.6048 2.35059 14.8615 1.21238 12 1.20919Z" fill="#545454"/>
</svg>
