<svg width="32" height="32" viewBox="0 0 32 32" fill="none" xmlns="http://www.w3.org/2000/svg">
<g filter="url(#filter0_d_371_485)">
<path d="M16.0001 13.4318C16.6026 13.4318 17.091 12.9434 17.091 12.3409C17.091 11.7384 16.6026 11.25 16.0001 11.25C15.3976 11.25 14.9092 11.7384 14.9092 12.3409C14.9092 12.9434 15.3976 13.4318 16.0001 13.4318Z" fill="#545454"/>
<path d="M20.875 13.5C21.4963 13.5 22 12.9963 22 12.375C22 11.7537 21.4963 11.25 20.875 11.25C20.2537 11.25 19.75 11.7537 19.75 12.375C19.75 12.9963 20.2537 13.5 20.875 13.5Z" fill="#545454"/>
<path d="M10.909 13.4318C11.5115 13.4318 11.9999 12.9434 11.9999 12.3409C11.9999 11.7384 11.5115 11.25 10.909 11.25C10.3065 11.25 9.81812 11.7384 9.81812 12.3409C9.81812 12.9434 10.3065 13.4318 10.909 13.4318Z" fill="#545454"/>
<path d="M16 24C13.6265 24 11.3064 23.2962 9.33291 21.9775C7.35947 20.6588 5.8214 18.7845 4.91322 16.5916C4.00504 14.3988 3.76754 11.9859 4.23076 9.65803C4.69398 7.33019 5.83711 5.192 7.51558 3.51387C9.19405 1.83574 11.3325 0.693037 13.6604 0.230288C15.9883 -0.232462 18.4012 0.00552231 20.5939 0.914144C22.7865 1.82277 24.6605 3.36121 25.9788 5.33492C27.2971 7.30863 28.0005 9.62894 28 12.0024C27.9962 15.1836 26.7306 18.2334 24.4809 20.4826C22.2312 22.7318 19.1812 23.9968 16 24ZM16 1.20919C13.8656 1.20919 11.7791 1.8421 10.0044 3.02789C8.22969 4.21368 6.84645 5.89909 6.02959 7.871C5.21273 9.84292 4.99894 12.0128 5.41526 14.1062C5.83157 16.1996 6.85929 18.1226 8.36846 19.6319C9.87763 21.1412 11.8005 22.1692 13.8938 22.5857C15.9872 23.0023 18.1571 22.7887 20.1291 21.9721C22.1011 21.1555 23.7867 19.7724 24.9727 17.9978C26.1586 16.2232 26.7918 14.1368 26.792 12.0024C26.7892 9.14097 25.6513 6.39752 23.628 4.37406C21.6048 2.35059 18.8615 1.21238 16 1.20919Z" fill="#545454"/>
</g>
<defs>
<filter id="filter0_d_371_485" x="0" y="0" width="32" height="32" filterUnits="userSpaceOnUse" color-interpolation-filters="sRGB">
<feFlood flood-opacity="0" result="BackgroundImageFix"/>
<feColorMatrix in="SourceAlpha" type="matrix" values="0 0 0 0 0 0 0 0 0 0 0 0 0 0 0 0 0 0 127 0" result="hardAlpha"/>
<feOffset dy="4"/>
<feGaussianBlur stdDeviation="2"/>
<feComposite in2="hardAlpha" operator="out"/>
<feColorMatrix type="matrix" values="0 0 0 0 0 0 0 0 0 0 0 0 0 0 0 0 0 0 0.25 0"/>
<feBlend mode="normal" in2="BackgroundImageFix" result="effect1_dropShadow_371_485"/>
<feBlend mode="normal" in="SourceGraphic" in2="effect1_dropShadow_371_485" result="shape"/>
</filter>
</defs>
</svg>
