<svg width="123" height="12" viewBox="0 0 123 12" fill="none" xmlns="http://www.w3.org/2000/svg">
<g id="&#208;&#187;&#208;&#190;&#208;&#179;&#208;&#190;">
<path id="Vector" d="M0 0.083334H9.61111V2.1H2.53704V4.81667H6.16667C6.80864 4.81667 7.38889 4.89444 7.90741 5.05C8.43827 5.20556 8.88889 5.43333 9.25926 5.73333C9.64198 6.03333 9.9321 6.4 10.1296 6.83333C10.3395 7.26667 10.4444 7.76667 10.4444 8.33333C10.4444 9.48889 10.0617 10.3778 9.2963 11C8.54321 11.6111 7.53086 11.9167 6.25926 11.9167H0V0.083334ZM6.01852 9.96667C6.62346 9.96667 7.08025 9.82222 7.38889 9.53333C7.69753 9.23333 7.85185 8.82778 7.85185 8.31667C7.85185 7.82778 7.69753 7.43333 7.38889 7.13333C7.08025 6.83333 6.62346 6.68333 6.01852 6.68333H2.53704V9.96667H6.01852ZM18.5796 0.083334H20.8388L25.8388 11.9167H23.2092L21.987 8.96667H17.3944L16.1907 11.9167H13.5611L18.5796 0.083334ZM21.524 7.35L19.7092 2.7L17.8203 7.35H21.524ZM41.1698 0.083334V11.9167H38.6328V6.86667H32.6698V11.9167H30.1143V0.083334H32.6698V4.86667H38.6328V0.083334H41.1698ZM57.8546 0.083334V11.9167H55.3176V6.86667H49.3546V11.9167H46.799V0.083334H49.3546V4.86667H55.3176V0.083334H57.8546ZM66.0208 8.38333L72.7245 0.083334H74.669V11.9167H72.1319V3.8L65.5208 11.9167H63.4838V0.083334H66.0208V8.38333ZM82.8322 4.95H83.8692L87.8692 0.083334H90.7581L86.0359 5.8L91.184 11.9167H88.3322L84.11 7.01667H82.8322V11.9167H80.2951V0.083334H82.8322V4.95ZM100.203 12C99.24 12 98.3635 11.8333 97.5733 11.5C96.7956 11.1556 96.1227 10.7056 95.5548 10.15C94.9993 9.58333 94.5672 8.93889 94.2585 8.21667C93.9499 7.49444 93.7956 6.75556 93.7956 6C93.7956 5.21111 93.9561 4.45556 94.2771 3.73333C94.6104 3.01111 95.061 2.37222 95.6289 1.81667C96.2092 1.26111 96.8943 0.822223 97.6845 0.5C98.4746 0.166668 99.3326 9.53674e-07 100.259 9.53674e-07C101.209 9.53674e-07 102.073 0.177778 102.851 0.533335C103.641 0.877779 104.314 1.33333 104.87 1.9C105.425 2.46667 105.857 3.11111 106.166 3.83333C106.475 4.55556 106.629 5.28889 106.629 6.03333C106.629 6.82222 106.468 7.57778 106.147 8.3C105.826 9.01111 105.382 9.64444 104.814 10.2C104.246 10.7444 103.567 11.1833 102.777 11.5167C101.987 11.8389 101.129 12 100.203 12ZM96.3882 6C96.3882 6.51111 96.4746 7.00556 96.6474 7.48333C96.8203 7.96111 97.0672 8.38333 97.3882 8.75C97.7215 9.11667 98.1227 9.41111 98.5919 9.63333C99.0733 9.85556 99.6166 9.96667 100.221 9.96667C100.839 9.96667 101.382 9.85556 101.851 9.63333C102.333 9.4 102.734 9.09444 103.055 8.71667C103.388 8.33889 103.635 7.91667 103.796 7.45C103.968 6.97222 104.055 6.48889 104.055 6C104.055 5.48889 103.962 4.99444 103.777 4.51667C103.604 4.03889 103.351 3.61667 103.018 3.25C102.697 2.88333 102.296 2.59444 101.814 2.38333C101.345 2.16111 100.814 2.05 100.221 2.05C99.6042 2.05 99.0548 2.16667 98.5733 2.4C98.0919 2.62222 97.6906 2.92222 97.3696 3.3C97.0487 3.66667 96.8018 4.08889 96.6289 4.56667C96.4684 5.03333 96.3882 5.51111 96.3882 6ZM122.46 0.083334V11.9167H119.923V6.86667H113.96V11.9167H111.404V0.083334H113.96V4.86667H119.923V0.083334H122.46Z" fill="white"/>
</g>
</svg>
