<svg width="32" height="32" viewBox="0 0 32 32" fill="none" xmlns="http://www.w3.org/2000/svg">
<path d="M12.3359 21.6794C12.112 21.4656 12 21.1936 12 20.8632C12 20.5329 12.112 20.2608 12.3359 20.0471L17.0992 15.5L12.3359 10.9529C12.112 10.7392 12 10.4671 12 10.1368C12 9.80643 12.112 9.53438 12.3359 9.32063C12.5598 9.10688 12.8448 9 13.1908 9C13.5369 9 13.8219 9.10688 14.0458 9.32063L19.6641 14.6839C19.7862 14.8004 19.873 14.9268 19.9243 15.0628C19.9756 15.1988 20.0008 15.3445 20 15.5C20 15.6555 19.9743 15.8012 19.923 15.9372C19.8717 16.0732 19.7854 16.1996 19.6641 16.3161L14.0458 21.6794C13.8219 21.8931 13.5369 22 13.1908 22C12.8448 22 12.5598 21.8931 12.3359 21.6794Z" fill="white"/>
</svg>
