<svg width="25" height="24" viewBox="0 0 25 24" fill="none" xmlns="http://www.w3.org/2000/svg">
<path id="Vector" d="M25 5.1428C25 4.23348 24.6237 3.36141 23.954 2.71842C23.2842 2.07544 22.3758 1.71421 21.4286 1.71421H20.5357V0.881175C20.5357 0.419923 20.1663 0.024029 19.6858 0.000993207C19.5651 -0.00459067 19.4445 0.0134133 19.3312 0.0539143C19.2179 0.0944154 19.1144 0.15657 19.0269 0.236613C18.9394 0.316655 18.8698 0.412918 18.8222 0.519569C18.7746 0.62622 18.75 0.741039 18.75 0.857067V1.71421H6.25V0.881175C6.25 0.419923 5.88058 0.024029 5.40011 0.000993207C5.27939 -0.00459067 5.15874 0.0134133 5.04548 0.0539143C4.93222 0.0944154 4.8287 0.15657 4.74121 0.236613C4.65371 0.316655 4.58405 0.412918 4.53645 0.519569C4.48885 0.62622 4.4643 0.741039 4.46429 0.857067V1.71421H3.57143C2.62423 1.71421 1.71582 2.07544 1.04605 2.71842C0.376274 3.36141 0 4.23348 0 5.1428V5.78566C0 5.84249 0.0235172 5.89699 0.065378 5.93718C0.107239 5.97737 0.164014 5.99994 0.223214 5.99994H24.7768C24.836 5.99994 24.8928 5.97737 24.9346 5.93718C24.9765 5.89699 25 5.84249 25 5.78566V5.1428ZM0 20.5714C0 21.4807 0.376274 22.3528 1.04605 22.9958C1.71582 23.6388 2.62423 24 3.57143 24H21.4286C22.3758 24 23.2842 23.6388 23.954 22.9958C24.6237 22.3528 25 21.4807 25 20.5714V7.87495C25 7.83232 24.9824 7.79144 24.951 7.7613C24.9196 7.73116 24.877 7.71423 24.8326 7.71423H0.167411C0.123011 7.71423 0.0804291 7.73116 0.0490335 7.7613C0.0176379 7.79144 0 7.83232 0 7.87495V20.5714ZM19.1964 9.42852C19.4613 9.42852 19.7203 9.50393 19.9405 9.64521C20.1607 9.78648 20.3324 9.98728 20.4338 10.2222C20.5351 10.4572 20.5617 10.7157 20.51 10.9651C20.4583 11.2145 20.3307 11.4436 20.1434 11.6234C19.9561 11.8032 19.7175 11.9256 19.4577 11.9753C19.1979 12.0249 18.9286 11.9994 18.6839 11.9021C18.4392 11.8048 18.23 11.64 18.0829 11.4285C17.9357 11.2171 17.8571 10.9685 17.8571 10.7142C17.8571 10.3732 17.9982 10.0462 18.2494 9.8051C18.5006 9.56398 18.8412 9.42852 19.1964 9.42852ZM19.1964 13.7143C19.4613 13.7143 19.7203 13.7897 19.9405 13.9309C20.1607 14.0722 20.3324 14.273 20.4338 14.5079C20.5351 14.7429 20.5617 15.0014 20.51 15.2508C20.4583 15.5002 20.3307 15.7293 20.1434 15.9091C19.9561 16.0889 19.7175 16.2114 19.4577 16.261C19.1979 16.3106 18.9286 16.2851 18.6839 16.1878C18.4392 16.0905 18.23 15.9257 18.0829 15.7143C17.9357 15.5028 17.8571 15.2543 17.8571 15C17.8571 14.659 17.9982 14.332 18.2494 14.0908C18.5006 13.8497 18.8412 13.7143 19.1964 13.7143ZM14.7321 9.42852C14.997 9.42852 15.256 9.50393 15.4762 9.64521C15.6965 9.78648 15.8681 9.98728 15.9695 10.2222C16.0708 10.4572 16.0974 10.7157 16.0457 10.9651C15.994 11.2145 15.8665 11.4436 15.6792 11.6234C15.4919 11.8032 15.2532 11.9256 14.9934 11.9753C14.7336 12.0249 14.4643 11.9994 14.2196 11.9021C13.9749 11.8048 13.7657 11.64 13.6186 11.4285C13.4714 11.2171 13.3929 10.9685 13.3929 10.7142C13.3929 10.3732 13.534 10.0462 13.7851 9.8051C14.0363 9.56398 14.3769 9.42852 14.7321 9.42852ZM14.7321 13.7143C14.997 13.7143 15.256 13.7897 15.4762 13.9309C15.6965 14.0722 15.8681 14.273 15.9695 14.5079C16.0708 14.7429 16.0974 15.0014 16.0457 15.2508C15.994 15.5002 15.8665 15.7293 15.6792 15.9091C15.4919 16.0889 15.2532 16.2114 14.9934 16.261C14.7336 16.3106 14.4643 16.2851 14.2196 16.1878C13.9749 16.0905 13.7657 15.9257 13.6186 15.7143C13.4714 15.5028 13.3929 15.2543 13.3929 15C13.3929 14.659 13.534 14.332 13.7851 14.0908C14.0363 13.8497 14.3769 13.7143 14.7321 13.7143ZM14.7321 18C14.997 18 15.256 18.0754 15.4762 18.2167C15.6965 18.3579 15.8681 18.5587 15.9695 18.7937C16.0708 19.0286 16.0974 19.2871 16.0457 19.5365C15.994 19.7859 15.8665 20.015 15.6792 20.1948C15.4919 20.3746 15.2532 20.4971 14.9934 20.5467C14.7336 20.5963 14.4643 20.5709 14.2196 20.4735C13.9749 20.3762 13.7657 20.2114 13.6186 20C13.4714 19.7886 13.3929 19.54 13.3929 19.2857C13.3929 18.9447 13.534 18.6177 13.7851 18.3766C14.0363 18.1354 14.3769 18 14.7321 18ZM10.2679 13.7143C10.5327 13.7143 10.7917 13.7897 11.0119 13.9309C11.2322 14.0722 11.4038 14.273 11.5052 14.5079C11.6066 14.7429 11.6331 15.0014 11.5814 15.2508C11.5297 15.5002 11.4022 15.7293 11.2149 15.9091C11.0276 16.0889 10.7889 16.2114 10.5291 16.261C10.2693 16.3106 10.0001 16.2851 9.75533 16.1878C9.51061 16.0905 9.30144 15.9257 9.15428 15.7143C9.00712 15.5028 8.92857 15.2543 8.92857 15C8.92857 14.659 9.06967 14.332 9.32084 14.0908C9.572 13.8497 9.91266 13.7143 10.2679 13.7143ZM10.2679 18C10.5327 18 10.7917 18.0754 11.0119 18.2167C11.2322 18.3579 11.4038 18.5587 11.5052 18.7937C11.6066 19.0286 11.6331 19.2871 11.5814 19.5365C11.5297 19.7859 11.4022 20.015 11.2149 20.1948C11.0276 20.3746 10.7889 20.4971 10.5291 20.5467C10.2693 20.5963 10.0001 20.5709 9.75533 20.4735C9.51061 20.3762 9.30144 20.2114 9.15428 20C9.00712 19.7886 8.92857 19.54 8.92857 19.2857C8.92857 18.9447 9.06967 18.6177 9.32084 18.3766C9.572 18.1354 9.91266 18 10.2679 18ZM5.80357 13.7143C6.06846 13.7143 6.32739 13.7897 6.54764 13.9309C6.76788 14.0722 6.93954 14.273 7.04091 14.5079C7.14228 14.7429 7.1688 15.0014 7.11712 15.2508C7.06545 15.5002 6.93789 15.7293 6.75059 15.9091C6.56329 16.0889 6.32465 16.2114 6.06485 16.261C5.80506 16.3106 5.53577 16.2851 5.29105 16.1878C5.04633 16.0905 4.83716 15.9257 4.69 15.7143C4.54283 15.5028 4.46429 15.2543 4.46429 15C4.46429 14.659 4.60539 14.332 4.85655 14.0908C5.10772 13.8497 5.44837 13.7143 5.80357 13.7143ZM5.80357 18C6.06846 18 6.32739 18.0754 6.54764 18.2167C6.76788 18.3579 6.93954 18.5587 7.04091 18.7937C7.14228 19.0286 7.1688 19.2871 7.11712 19.5365C7.06545 19.7859 6.93789 20.015 6.75059 20.1948C6.56329 20.3746 6.32465 20.4971 6.06485 20.5467C5.80506 20.5963 5.53577 20.5709 5.29105 20.4735C5.04633 20.3762 4.83716 20.2114 4.69 20C4.54283 19.7886 4.46429 19.54 4.46429 19.2857C4.46429 18.9447 4.60539 18.6177 4.85655 18.3766C5.10772 18.1354 5.44837 18 5.80357 18Z" fill="white"/>
</svg>
