<svg width="21" height="14" viewBox="0 0 21 14" fill="none" xmlns="http://www.w3.org/2000/svg">
<path d="M10.2307 4.57697C9.58805 4.57697 8.97174 4.83225 8.51732 5.28667C8.06291 5.74108 7.80762 6.3574 7.80762 7.00004C7.80762 7.64268 8.06291 8.259 8.51732 8.71342C8.97174 9.16783 9.58805 9.42312 10.2307 9.42312C10.8733 9.42312 11.4897 9.16783 11.9441 8.71342C12.3985 8.259 12.6538 7.64268 12.6538 7.00004C12.6538 6.3574 12.3985 5.74108 11.9441 5.28667C11.4897 4.83225 10.8733 4.57697 10.2307 4.57697Z" fill="white"/>
<path fill-rule="evenodd" clip-rule="evenodd" d="M10.2308 0C7.41138 0 4.87631 1.13185 3.04985 2.534C2.13446 3.23615 1.38385 4.01585 0.857231 4.774C0.340308 5.51923 0 6.30108 0 7C0 7.69892 0.341385 8.48077 0.857231 9.22492C1.38492 9.98415 2.13446 10.7638 3.04985 11.4649C4.87631 12.8692 7.41138 14 10.2308 14C13.0502 14 15.5852 12.8682 17.4117 11.466C18.3271 10.7638 19.0777 9.98415 19.6032 9.226C20.1202 8.48077 20.4615 7.69892 20.4615 7C20.4615 6.30108 20.1202 5.51923 19.6032 4.77508C19.0777 4.01585 18.3271 3.23615 17.4117 2.53508C15.5852 1.13077 13.0502 0 10.2308 0ZM6.19231 7C6.19231 5.92893 6.61779 4.90174 7.37515 4.14438C8.1325 3.38702 9.1597 2.96154 10.2308 2.96154C11.3018 2.96154 12.329 3.38702 13.0864 4.14438C13.8438 4.90174 14.2692 5.92893 14.2692 7C14.2692 8.07107 13.8438 9.09827 13.0864 9.85562C12.329 10.613 11.3018 11.0385 10.2308 11.0385C9.1597 11.0385 8.1325 10.613 7.37515 9.85562C6.61779 9.09827 6.19231 8.07107 6.19231 7Z" fill="white"/>
</svg>
