<svg width="781" height="500" viewBox="0 0 781 500" fill="none" xmlns="http://www.w3.org/2000/svg">
<g clip-path="url(#clip0_491_22)">
<path fill-rule="evenodd" clip-rule="evenodd" d="M417 201.055C417 335.008 303.112 433 180.022 433C92.5947 433 29.9969 386.169 0 323.42V152.833C28.3166 99.626 84.7788 63.3977 156.944 63.3977C251.825 63.3977 323.624 132.851 323.624 219.672C323.624 308.974 256.949 375.949 167.2 375.949C115.912 375.949 72.3188 358.586 38.9849 311.456L28.7252 318.895C59.4969 368.507 105.653 403.237 180.022 403.237C295.415 403.237 387.733 311.456 387.733 192.387C387.733 112.553 348.798 41.4935 282.615 0H325.665C341.935 12.3678 363.79 31.2918 380.686 57.4393C407.252 98.5511 417 157.179 417 201.055ZM325.665 0H775C778.314 0 781 2.68629 781 6V494C781 497.314 778.314 500 775 500H6C2.68629 500 0 497.314 0 494V323.42C-13.1167 295.982 -20 265.501 -20 234.56C-20 204.997 -12.9377 177.143 0 152.833V6C0 2.68629 2.68629 0 6 0H282.615C266.287 -10.2371 248.3 -18.6745 228.83 -25H284.951C286.006 -23.6969 287.851 -23.0157 290.563 -22.014C294.494 -20.5623 300.246 -18.4377 308.059 -12.7726C309.26 -11.9021 310.64 -10.9229 312.175 -9.83338C315.88 -7.20461 320.49 -3.93398 325.665 0Z" fill="url(#paint0_linear_491_22)"/>
</g>
<defs>
<linearGradient id="paint0_linear_491_22" x1="781" y1="448.5" x2="0.714948" y2="39.1372" gradientUnits="userSpaceOnUse">
<stop stop-color="#44C3FE"/>
<stop offset="0.234375" stop-color="#048FEC"/>
<stop offset="0.6875" stop-color="#336AE1"/>
<stop offset="1" stop-color="#1250D7"/>
</linearGradient>
<clipPath id="clip0_491_22">
<rect width="781" height="500" fill="white"/>
</clipPath>
</defs>
</svg>
