<svg width="204" height="66" viewBox="0 0 204 66" fill="none" xmlns="http://www.w3.org/2000/svg">
<path d="M9.13764 17.1228L2.97981 9.97542H2.43358V17.1228H0V1.11643H2.43358V8.40241L8.91447 1.11643H11.8194L4.94156 8.70335L12.0425 17.1228H9.13764Z" fill="white"/>
<path d="M18.9966 12.8666L12.6895 1.11643H15.3967L20.3127 10.2759L24.9063 1.11643H27.4886L19.2947 17.1228H16.8616L18.9966 12.8666Z" fill="white"/>
<path d="M31.9346 3.10572V8.19452H33.2752C35.0132 8.19452 35.907 7.17637 35.907 5.60384C35.907 4.05409 35.0132 3.10572 33.2752 3.10572H31.9346ZM33.3995 10.1833H31.9346V17.1228H29.501V1.11643H33.3995C36.6025 1.11643 38.4399 2.64293 38.4399 5.58058C38.4399 8.47171 36.3788 10.1833 33.3995 10.1833Z" fill="white"/>
<path d="M49.093 15.3187C52.9415 15.3187 55.5988 12.728 55.5988 9.11971C55.5988 5.51137 52.9415 2.89792 49.093 2.89792C45.2444 2.89792 42.6121 5.51137 42.6121 9.11971C42.6121 12.728 45.2444 15.3187 49.093 15.3187ZM49.068 0.79281C54.2577 0.79281 58.1562 4.28533 58.1562 9.09693C58.1562 13.9308 54.2827 17.4238 49.093 17.4238C43.9282 17.4238 40.0547 13.9308 40.0547 9.11971C40.0547 4.28533 43.9282 0.79281 49.068 0.79281Z" fill="white"/>
<path d="M63.2476 3.10572V8.19452H64.5882C66.3262 8.19452 67.22 7.17637 67.22 5.60384C67.22 4.05409 66.3262 3.10572 64.5882 3.10572H63.2476ZM64.712 10.1833H63.2476V17.1228H60.8135V1.11643H64.712C67.9155 1.11643 69.7529 2.64293 69.7529 5.58058C69.7529 8.47171 67.6918 10.1833 64.712 10.1833Z" fill="white"/>
<path d="M77.5006 3.22154V17.1228H75.067V3.22154H71.5415V1.11643H81.0267V3.22154H77.5006Z" fill="white"/>
<path d="M97.6633 17.1228H95.2297V1.11643H97.6633V17.1228ZM86.167 10.2764V15.134H87.8551C89.5937 15.134 90.4869 14.1619 90.4869 12.6587C90.4869 11.1782 89.5937 10.2764 87.8551 10.2764H86.167ZM87.9794 8.28707C91.1824 8.28707 93.0204 9.76704 93.0204 12.6354C93.0204 15.4572 90.9592 17.1228 87.9794 17.1228H83.7334V1.11643H86.167V8.28707H87.9794Z" fill="white"/>
<path d="M9.13764 41.561L2.97981 34.4141H2.43358V41.561H0V25.5552H2.43358V32.8411L8.91447 25.5552H11.8194L4.94156 33.1416L12.0425 41.561H9.13764Z" fill="white"/>
<path d="M16.5386 27.5442V32.6325H17.8797C19.6172 32.6325 20.5115 31.6153 20.5115 30.0423C20.5115 28.4926 19.6172 27.5442 17.8797 27.5442H16.5386ZM18.0035 34.6218H16.5386V41.5608H14.105V25.5549H18.0035C21.2065 25.5549 23.0439 27.0814 23.0439 30.0191C23.0439 32.9107 20.9833 34.6218 18.0035 34.6218Z" fill="white"/>
<path d="M27.8619 34.3213H33.0761L30.5931 28.5619H30.2456L27.8619 34.3213ZM36.2052 41.5608L33.9204 36.2641H27.067L24.8821 41.5608H22.3247L29.1526 25.5549H31.7105L38.837 41.5608H36.2052Z" fill="white"/>
<path d="M52.4448 40.8904C51.278 41.3993 49.7132 41.8621 47.8513 41.8621C42.4379 41.8621 38.8125 38.4156 38.8125 33.5579C38.8125 28.7701 42.4379 25.2315 47.8014 25.2315C49.3657 25.2315 50.9549 25.532 52.2456 26.0408V28.3306C50.3588 27.3361 47.702 26.9427 45.3927 27.7059C42.8603 28.5622 41.3704 30.7594 41.3704 33.5579C41.3704 36.1486 42.736 38.2077 44.9459 39.156C47.4289 40.2425 50.2599 39.8728 52.4448 38.6933V40.8904Z" fill="white"/>
<path d="M64.8859 41.561H62.4523V34.3444H57.9087V41.561H55.4751V25.5552H57.9087V32.1932H62.4523V25.5552H64.8859V41.561Z" fill="white"/>
<path d="M76.5817 39.757C80.4303 39.757 83.0876 37.1663 83.0876 33.5579C83.0876 29.9496 80.4303 27.3361 76.5817 27.3361C72.7332 27.3361 70.1009 29.9496 70.1009 33.5579C70.1009 37.1663 72.7332 39.757 76.5817 39.757ZM76.5568 25.231C81.747 25.231 85.645 28.7236 85.645 33.5352C85.645 38.3695 81.7714 41.8621 76.5817 41.8621C71.417 41.8621 67.5435 38.3695 67.5435 33.5579C67.5435 28.7236 71.417 25.231 76.5568 25.231Z" fill="white"/>
<path d="M91.2325 34.7379C91.1575 36.4262 90.835 38.6006 89.5194 39.4332H95.2548V27.6831H91.5305L91.2325 34.7379ZM97.3159 41.5611H88.1783V44.3601H85.9189V39.4332C87.7813 39.2941 88.7994 38.022 88.9482 34.5295L89.3207 25.5552H97.6884V39.4332H99.5757V44.3601H97.3159V41.5611Z" fill="white"/>
<path d="M106.032 34.3213H111.246L108.763 28.5619H108.416L106.032 34.3213ZM114.376 41.5608L112.091 36.2641H105.238L103.053 41.5608H100.495L107.323 25.5549H109.881L117.007 41.5608H114.376Z" fill="white"/>
<path d="M121.18 27.5442V32.6325H122.521C124.259 32.6325 125.153 31.6153 125.153 30.0423C125.153 28.4926 124.259 27.5442 122.521 27.5442H121.18ZM122.645 34.6218H121.18V41.5608H118.747V25.5549H122.645C125.848 25.5549 127.686 27.0814 127.686 30.0191C127.686 32.9107 125.625 34.6218 122.645 34.6218Z" fill="white"/>
<path d="M142.956 40.8904C141.79 41.3993 140.225 41.8621 138.363 41.8621C132.951 41.8621 129.325 38.4156 129.325 33.5579C129.325 28.7701 132.951 25.2315 138.314 25.2315C139.878 25.2315 141.467 25.532 142.758 26.0408V28.3306C140.871 27.3361 138.214 26.9427 135.905 27.7059C133.372 28.5622 131.883 30.7594 131.883 33.5579C131.883 36.1486 133.248 38.2077 135.458 39.156C137.941 40.2425 140.772 39.8728 142.956 38.6933V40.8904Z" fill="white"/>
<path d="M155.124 41.561L148.967 34.4141H148.42V41.561H145.987V25.5552H148.42V32.8411L154.901 25.5552H157.806L150.928 33.1416L158.03 41.561H155.124Z" fill="white"/>
<path d="M166.299 39.757C170.147 39.757 172.804 37.1663 172.804 33.5579C172.804 29.9496 170.147 27.3361 166.299 27.3361C162.45 27.3361 159.818 29.9496 159.818 33.5579C159.818 37.1663 162.45 39.757 166.299 39.757ZM166.274 25.231C171.464 25.231 175.362 28.7236 175.362 33.5352C175.362 38.3695 171.488 41.8621 166.299 41.8621C161.134 41.8621 157.26 38.3695 157.26 33.5579C157.26 28.7236 161.134 25.231 166.274 25.231Z" fill="white"/>
<path d="M180.454 41.561H178.02V25.5552H185.097V27.6598H180.454V41.561Z" fill="white"/>
<path d="M194.732 39.757C198.58 39.757 201.237 37.1663 201.237 33.5579C201.237 29.9496 198.58 27.3361 194.732 27.3361C190.883 27.3361 188.251 29.9496 188.251 33.5579C188.251 37.1663 190.883 39.757 194.732 39.757ZM194.706 25.231C199.896 25.231 203.794 28.7236 203.794 33.5352C203.794 38.3695 199.921 41.8621 194.732 41.8621C189.566 41.8621 185.693 38.3695 185.693 33.5579C185.693 28.7236 189.566 25.231 194.706 25.231Z" fill="white"/>
<path d="M9.13764 65.9998L2.97981 58.8524H2.43358V65.9998H0V49.9934H2.43358V57.2794L8.91447 49.9934H11.8194L4.94156 57.5803L12.0425 65.9998H9.13764Z" fill="white"/>
<path d="M16.5386 51.9829V57.0717H17.8797C19.6172 57.0717 20.5115 56.0536 20.5115 54.481C20.5115 52.9313 19.6172 51.9829 17.8797 51.9829H16.5386ZM18.0035 59.0605H16.5386V66H14.105V49.9936H18.0035C21.2065 49.9936 23.0439 51.5206 23.0439 54.4578C23.0439 57.3489 20.9833 59.0605 18.0035 59.0605Z" fill="white"/>
<path d="M27.8619 58.7603H33.0761L30.5931 53.0008H30.2456L27.8619 58.7603ZM36.2052 65.9998L33.9204 60.7031H27.067L24.8821 65.9998H22.3247L29.1526 49.9934H31.7105L38.837 65.9998H36.2052Z" fill="white"/>
<path d="M49.4155 57.0717V51.9829H46.4107C44.5983 51.9829 43.6796 52.9545 43.6796 54.5271C43.6796 56.0768 44.5983 57.0717 46.3363 57.0717H49.4155ZM51.8486 49.9936V66H49.4155V58.9912H46.4357L42.1403 66H39.458L44.077 58.6215C42.0159 57.881 41.1466 56.355 41.1466 54.5038C41.1466 51.5434 43.0834 49.9936 46.3363 49.9936H51.8486Z" fill="white"/>
</svg>
