<svg width="87" height="82" viewBox="0 0 87 82" fill="none" xmlns="http://www.w3.org/2000/svg">
<path d="M0 40.0284C0 63.3457 19.4204 82 44.2775 82C66.8041 82 87 64.1234 87 38.8624C87 24.4832 78.8446 9.32689 66.8041 2.71974L65.6388 4.2746C75.3487 10.4923 82.3399 24.4832 82.3399 37.6959C82.3399 58.6822 65.2507 73.8386 46.6076 73.8386C27.5758 73.8386 16.3125 58.6822 16.3125 42.7493C16.3125 27.9807 27.1883 15.9335 43.1122 15.9335C57.4828 15.9335 68.3574 26.8147 68.3574 40.4167C68.3574 54.4076 58.2589 64.9005 44.6656 64.9005C36.8977 64.9005 30.295 62.1802 25.2463 54.7965L23.6924 55.9619C28.353 63.7345 35.3437 69.1757 46.6076 69.1757C64.0848 69.1757 78.0673 54.7965 78.0673 36.1421C78.0673 16.35 63.3004 0 40.7816 0C19.4204 0 0 17.0995 0 40.0284Z" fill="white"/>
</svg>
