<svg width="37" height="35" viewBox="0 0 37 35" fill="none" xmlns="http://www.w3.org/2000/svg">
<path id="path2755" d="M0 17.0853C0 27.0378 8.25924 35 18.8307 35C28.4109 35 37 27.3697 37 16.5876C37 10.4502 33.5316 3.98099 28.4109 1.16087L27.9153 1.82452C32.0448 4.47844 35.0181 10.4502 35.0181 16.0897C35.0181 25.0473 27.7503 31.5165 19.8216 31.5165C11.7276 31.5165 6.93751 25.0473 6.93751 18.2466C6.93751 11.943 11.5628 6.80088 18.3351 6.80088C24.4467 6.80088 29.0715 11.4453 29.0715 17.251C29.0715 23.2228 24.7768 27.7014 18.9957 27.7014C15.6921 27.7014 12.8841 26.5403 10.7369 23.3887L10.0761 23.8862C12.0582 27.2038 15.0312 29.5262 19.8216 29.5262C27.2545 29.5262 33.201 23.3887 33.201 15.4265C33.201 6.97866 26.9209 0 17.3439 0C8.25924 0 0 7.29856 0 17.0853Z" fill="white"/>
</svg>
