<svg width="20" height="22" viewBox="0 0 20 22" fill="none" xmlns="http://www.w3.org/2000/svg">
<g filter="url(#filter0_d_371_317)">
<path d="M8.22321 6.95566C8.22321 5.96289 9.02232 5.15879 10 5.15879C10.9777 5.15879 11.7768 5.96289 11.7768 6.95566C11.7768 7.94395 10.9777 8.74355 10 8.74355C9.02232 8.74355 8.22321 7.93945 8.22321 6.95566ZM20 2.59375V18.4062C20 19.5967 19.0402 20.5625 17.8571 20.5625H2.14286C0.959821 20.5625 0 19.5967 0 18.4062V2.59375C0 1.40332 0.959821 0.4375 2.14286 0.4375H17.8571C19.0402 0.4375 20 1.40332 20 2.59375ZM6.37946 6.95566C6.37946 8.95918 8.00446 10.5898 10 10.5898C11.9955 10.5898 13.6205 8.96367 13.6205 6.95566C13.6205 4.94316 11.9955 3.3125 10 3.3125C8.00446 3.3125 6.37946 4.93867 6.37946 6.95566ZM14.1696 11.0301C13.9643 10.6213 13.3973 10.2754 12.6473 10.8684C12.6473 10.8684 11.6339 11.677 10 11.677C8.36607 11.677 7.35268 10.8684 7.35268 10.8684C6.60268 10.2754 6.03571 10.6213 5.83036 11.0301C5.47768 11.7533 5.87946 12.0947 6.78571 12.6922C7.55804 13.1908 8.625 13.375 9.3125 13.4469L8.73661 14.0264C7.92411 14.835 7.15179 15.6211 6.60714 16.1691C5.82143 16.9598 7.08482 18.2266 7.875 17.4539L10.0045 15.3021C10.817 16.1197 11.5982 16.9059 12.1339 17.4539C12.9196 18.2266 14.1875 16.9732 13.4107 16.1691L11.2812 14.0264L10.7009 13.4469C11.3929 13.375 12.4464 13.1818 13.2098 12.6922C14.1205 12.0947 14.5179 11.7488 14.1696 11.0301Z" fill="white"/>
</g>
<defs>
<filter id="filter0_d_371_317" x="-4" y="0.4375" width="28" height="28.125" filterUnits="userSpaceOnUse" color-interpolation-filters="sRGB">
<feFlood flood-opacity="0" result="BackgroundImageFix"/>
<feColorMatrix in="SourceAlpha" type="matrix" values="0 0 0 0 0 0 0 0 0 0 0 0 0 0 0 0 0 0 127 0" result="hardAlpha"/>
<feOffset dy="4"/>
<feGaussianBlur stdDeviation="2"/>
<feComposite in2="hardAlpha" operator="out"/>
<feColorMatrix type="matrix" values="0 0 0 0 0 0 0 0 0 0 0 0 0 0 0 0 0 0 0.25 0"/>
<feBlend mode="normal" in2="BackgroundImageFix" result="effect1_dropShadow_371_317"/>
<feBlend mode="normal" in="SourceGraphic" in2="effect1_dropShadow_371_317" result="shape"/>
</filter>
</defs>
</svg>
