<svg width="40" height="42" viewBox="0 0 40 42" fill="none" xmlns="http://www.w3.org/2000/svg">
<path d="M16.4464 13.9113C16.4464 11.9258 18.0446 10.3176 20 10.3176C21.9554 10.3176 23.5536 11.9258 23.5536 13.9113C23.5536 15.8879 21.9554 17.4871 20 17.4871C18.0446 17.4871 16.4464 15.8789 16.4464 13.9113ZM40 5.1875V36.8125C40 39.1934 38.0804 41.125 35.7143 41.125H4.28571C1.91964 41.125 0 39.1934 0 36.8125V5.1875C0 2.80664 1.91964 0.875 4.28571 0.875H35.7143C38.0804 0.875 40 2.80664 40 5.1875ZM12.7589 13.9113C12.7589 17.9184 16.0089 21.1797 20 21.1797C23.9911 21.1797 27.2411 17.9273 27.2411 13.9113C27.2411 9.88633 23.9911 6.625 20 6.625C16.0089 6.625 12.7589 9.87734 12.7589 13.9113ZM28.3393 22.0602C27.9286 21.2426 26.7946 20.5508 25.2946 21.7367C25.2946 21.7367 23.2679 23.3539 20 23.3539C16.7321 23.3539 14.7054 21.7367 14.7054 21.7367C13.2054 20.5508 12.0714 21.2426 11.6607 22.0602C10.9554 23.5066 11.7589 24.1895 13.5714 25.3844C15.1161 26.3816 17.25 26.75 18.625 26.8938L17.4732 28.0527C15.8482 29.6699 14.3036 31.2422 13.2143 32.3383C11.6429 33.9195 14.1696 36.4531 15.75 34.9078L20.0089 30.6043C21.6339 32.2395 23.1964 33.8117 24.2679 34.9078C25.8393 36.4531 28.375 33.9465 26.8214 32.3383L22.5625 28.0527L21.4018 26.8938C22.7857 26.75 24.8929 26.3637 26.4196 25.3844C28.2411 24.1895 29.0357 23.4977 28.3393 22.0602Z" fill="white"/>
</svg>
