<svg width="44" height="44" viewBox="0 0 44 44" fill="none" xmlns="http://www.w3.org/2000/svg">
<path d="M18.3328 39.111H13.4439C13.1197 39.111 12.8089 38.9823 12.5797 38.7531C12.3504 38.5239 12.2217 38.213 12.2217 37.8888V32.9999C12.2217 32.6758 12.3504 32.3649 12.5797 32.1357C12.8089 31.9065 13.1197 31.7777 13.4439 31.7777H18.3328C18.6569 31.7777 18.9678 31.9065 19.197 32.1357C19.4262 32.3649 19.555 32.6758 19.555 32.9999V37.8888C19.555 38.213 19.4262 38.5239 19.197 38.7531C18.9678 38.9823 18.6569 39.111 18.3328 39.111ZM14.6661 36.6666H17.1106V34.2222H14.6661V36.6666Z" fill="white"/>
<path d="M18.3335 19.5556H13.4446C13.1204 19.5556 12.8095 19.6844 12.5803 19.9136C12.3511 20.1428 12.2224 20.4537 12.2224 20.7778V22.2445H7.08902V14.6667H8.55569C8.87984 14.6667 9.19072 14.5379 9.41993 14.3087C9.64914 14.0795 9.77791 13.7686 9.77791 13.4445V8.5556C9.77791 8.23144 9.64914 7.92057 9.41993 7.69135C9.19072 7.46214 8.87984 7.33337 8.55569 7.33337H3.6668C3.34265 7.33337 3.03177 7.46214 2.80256 7.69135C2.57335 7.92057 2.44458 8.23144 2.44458 8.5556V13.4445C2.44458 13.7686 2.57335 14.0795 2.80256 14.3087C3.03177 14.5379 3.34265 14.6667 3.6668 14.6667H5.13347V36.4223H12.9068C13.1661 36.4223 13.4148 36.3193 13.5982 36.1359C13.7816 35.9525 13.8846 35.7038 13.8846 35.4445C13.8846 35.1852 13.7816 34.9365 13.5982 34.7531C13.4148 34.5697 13.1661 34.4667 12.9068 34.4667H7.08902V24.2H12.2224V25.6667C12.2224 25.9909 12.3511 26.3017 12.5803 26.531C12.8095 26.7602 13.1204 26.8889 13.4446 26.8889H18.3335C18.6576 26.8889 18.9685 26.7602 19.1977 26.531C19.4269 26.3017 19.5557 25.9909 19.5557 25.6667V20.7778C19.5557 20.4537 19.4269 20.1428 19.1977 19.9136C18.9685 19.6844 18.6576 19.5556 18.3335 19.5556ZM4.88902 9.77782H7.33347V12.2223H4.88902V9.77782ZM17.1112 24.4445H14.6668V22H17.1112V24.4445Z" fill="white"/>
<path d="M41.555 10.9999C41.555 10.6758 41.4262 10.3649 41.197 10.1357C40.9678 9.90648 40.6569 9.77771 40.3328 9.77771H12.2217V12.2222H40.3328C40.6569 12.2222 40.9678 12.0934 41.197 11.8642C41.4262 11.635 41.555 11.3241 41.555 10.9999Z" fill="white"/>
<path d="M40.3333 22H22V24.4444H40.3333C40.6575 24.4444 40.9684 24.3157 41.1976 24.0865C41.4268 23.8573 41.5556 23.5464 41.5556 23.2222C41.5556 22.8981 41.4268 22.5872 41.1976 22.358C40.9684 22.1288 40.6575 22 40.3333 22Z" fill="white"/>
<path d="M40.3333 34.2223H22V36.6667H40.3333C40.6575 36.6667 40.9684 36.538 41.1976 36.3088C41.4268 36.0795 41.5556 35.7687 41.5556 35.4445C41.5556 35.1204 41.4268 34.8095 41.1976 34.5803C40.9684 34.3511 40.6575 34.2223 40.3333 34.2223Z" fill="white"/>
</svg>
