<svg width="93" height="100" viewBox="0 0 93 100" fill="none" xmlns="http://www.w3.org/2000/svg">
<g id="Group 40">
<path id="Vector" d="M109.431 -8.76488L109.443 -9.28971L108.918 -9.27691C94.8747 -8.93447 81.7884 -3.31419 71.7872 6.62111L71.7872 6.62113C61.7835 16.5598 56.2347 29.72 55.8923 43.7658L55.8795 44.2906L56.4044 44.2778C70.4471 43.9354 83.6025 38.3157 93.5359 28.3786C103.539 18.44 109.088 5.28036 109.431 -8.76488ZM92.83 27.6704L92.8287 27.6716C83.202 37.302 70.4959 42.8005 56.9074 43.2627C57.3679 29.6681 62.8001 16.9595 72.492 7.33054C82.188 -2.30167 94.8296 -7.79959 108.415 -8.26181C107.955 5.33276 102.522 18.0414 92.83 27.6704ZM55.6724 45.5023C85.3402 45.7709 109.382 69.8194 109.717 99.4977C80.0472 99.2292 55.9411 75.2448 55.6724 45.5023ZM55.6724 44.4977C55.9409 14.82 79.9821 -9.22905 109.65 -9.49773C109.383 20.2467 85.4066 44.2304 55.6724 44.4977ZM56.4724 45.7911L55.9501 45.7784L55.9603 46.3008C56.2341 60.2825 61.8541 73.442 71.8549 83.4466L71.8561 83.4478C81.8555 93.3822 94.9428 99.0034 108.987 99.3459L109.511 99.3587L109.499 98.8338C109.156 84.7866 103.538 71.6275 93.6049 61.6904L93.6037 61.6891C83.6025 51.7538 70.5161 46.1336 56.4724 45.7911ZM72.5609 82.7384C62.8671 73.0403 57.3702 60.3307 56.973 46.8061C70.5597 47.2678 83.2022 52.7658 92.8989 62.3985C102.525 72.0288 108.021 84.7381 108.483 98.3308C94.8976 97.8685 82.2552 92.3697 72.5609 82.7384Z" stroke="white"/>
<path id="Vector_2" d="M0.790226 98.7649L0.777432 99.2897L1.30227 99.2769C15.346 98.9345 28.4324 93.3142 38.4336 83.3789L38.4336 83.3789C48.4373 73.4402 53.9861 60.28 54.3284 46.2342L54.3412 45.7094L53.8164 45.7222C39.7737 46.0646 26.6183 51.6843 16.6848 61.6214C6.68187 71.56 1.13258 84.7196 0.790226 98.7649ZM17.3908 62.3296L17.392 62.3284C27.0188 52.698 39.7249 47.1995 53.3134 46.7373C52.8528 60.3319 47.4206 73.0405 37.7288 82.6695C28.0327 92.3017 15.3911 97.7996 1.80529 98.2618C2.26584 84.6672 7.69889 71.9586 17.3908 62.3296ZM54.5551 44.4977C24.8872 44.2291 0.838531 20.1805 0.503416 -9.49772C30.1737 -9.22917 54.2864 14.7553 54.5551 44.4977ZM54.5551 45.5023C54.2865 75.1799 30.2388 99.229 0.570309 99.4977C0.837577 69.7534 24.8208 45.7696 54.5551 45.5023ZM53.7483 44.2089L54.2707 44.2216L54.2604 43.6992C53.9866 29.7175 48.3667 16.558 38.3658 6.55341L38.3646 6.5522C28.3653 -3.3822 15.278 -9.00343 1.23422 -9.34588L0.709391 -9.35867L0.722185 -8.83384C1.0646 5.21341 6.68237 18.3725 16.6158 28.3096L16.617 28.3109C26.6182 38.2462 39.7046 43.8664 53.7483 44.2089ZM37.6598 7.26161C47.3537 16.9597 52.8505 29.6693 53.2478 43.1939C39.661 42.7322 27.0185 37.2342 17.3219 27.6015C7.69576 17.9712 2.19943 5.26185 1.73728 -8.33076C15.3231 -7.86852 27.9656 -2.36968 37.6598 7.26161Z" stroke="white"/>
</g>
</svg>
