<svg width="44" height="44" viewBox="0 0 44 44" fill="none" xmlns="http://www.w3.org/2000/svg">
<g id="octicon:law-24">
<path id="Vector" d="M23.375 5.04175V8.25008H26.9958C27.6393 8.25008 28.2681 8.44441 28.7998 8.80558L31.911 10.9212C31.9861 10.9726 32.076 11.0001 32.1676 11.0001H39.688C40.0527 11.0001 40.4024 11.1449 40.6602 11.4028C40.9181 11.6607 41.063 12.0104 41.063 12.3751C41.063 12.7398 40.9181 13.0895 40.6602 13.3474C40.4024 13.6052 40.0527 13.7501 39.688 13.7501H36.795L42.966 27.8301C43.0898 28.1116 43.1155 28.4264 43.039 28.7243C42.9626 29.0221 42.7884 29.2857 42.5443 29.4727C42.361 29.6084 42.1721 29.7349 41.976 29.8504C41.511 30.1279 41.027 30.3724 40.5276 30.5819C38.8694 31.2754 37.0891 31.6301 35.2916 31.6251C33.4949 31.6307 31.7152 31.2767 30.0575 30.5837C29.5579 30.3741 29.0738 30.129 28.6091 29.8504C28.4146 29.7378 28.2267 29.6142 28.0463 29.4801L28.0371 29.4727C27.7931 29.2857 27.6189 29.0221 27.5424 28.7243C27.466 28.4264 27.4917 28.1116 27.6155 27.8301L33.7901 13.7501H32.1658C31.5223 13.7501 30.8935 13.5557 30.3618 13.1946L27.2506 11.0789C27.1751 11.0272 27.0856 10.9997 26.994 11.0001H23.375V37.5834H31.6011C31.9658 37.5834 32.3156 37.7283 32.5734 37.9861C32.8313 38.244 32.9761 38.5937 32.9761 38.9584C32.9761 39.3231 32.8313 39.6728 32.5734 39.9307C32.3156 40.1885 31.9658 40.3334 31.6011 40.3334H12.3988C12.0341 40.3334 11.6844 40.1885 11.4265 39.9307C11.1687 39.6728 11.0238 39.3231 11.0238 38.9584C11.0238 38.5937 11.1687 38.244 11.4265 37.9861C11.6844 37.7283 12.0341 37.5834 12.3988 37.5834H20.625V11.0001H17.0041C16.9126 11 16.8232 11.0275 16.7475 11.0789L13.6381 13.1946C13.1065 13.5557 12.4776 13.7501 11.8341 13.7501H10.2098L16.3845 27.8301C16.504 28.1036 16.5312 28.4086 16.4621 28.699C16.393 28.9894 16.2312 29.2494 16.0013 29.4397C15.8546 29.5589 15.708 29.6707 15.433 29.8486C14.9693 30.1488 14.484 30.4142 13.981 30.6424C12.3251 31.3946 10.527 31.7823 8.70831 31.7791C6.88955 31.7829 5.09128 31.3952 3.43564 30.6424C2.93263 30.4142 2.44729 30.1488 1.98364 29.8486C1.78758 29.7239 1.59846 29.5887 1.41714 29.4434C1.18903 29.2509 1.02858 28.9904 0.959299 28.7001C0.890015 28.4097 0.915543 28.1048 1.03214 27.8301L7.20497 13.7501H4.31381C3.94914 13.7501 3.5994 13.6052 3.34154 13.3474C3.08367 13.0895 2.93881 12.7398 2.93881 12.3751C2.93881 12.0104 3.08367 11.6607 3.34154 11.4028C3.5994 11.1449 3.94914 11.0001 4.31381 11.0001H11.8341C11.9258 11.0001 12.0156 10.9726 12.0926 10.9212L15.2001 8.80558C15.7318 8.44258 16.3625 8.25008 17.006 8.25008H20.625V5.04175C20.625 4.67708 20.7698 4.32734 21.0277 4.06948C21.2856 3.81161 21.6353 3.66675 22 3.66675C22.3646 3.66675 22.7144 3.81161 22.9722 4.06948C23.2301 4.32734 23.375 4.67708 23.375 5.04175ZM4.02047 27.8631C5.46338 28.6312 7.07367 29.0311 8.70831 29.0272C10.3429 29.0311 11.9532 28.6312 13.3961 27.8631L8.70831 17.1747L4.02047 27.8631ZM30.6221 27.8191C30.7725 27.8924 30.9411 27.9712 31.1263 28.0501C32.098 28.4589 33.5188 28.8751 35.2916 28.8751C36.9079 28.8796 38.5042 28.5186 39.9611 27.8191L35.2916 17.1729L30.6221 27.8191Z" fill="white"/>
</g>
</svg>
