<svg width="96" height="100" viewBox="0 0 96 100" fill="none" xmlns="http://www.w3.org/2000/svg">
<path id="Vector" d="M83.297 46.6624L109.058 72.3815L83.1604 98.1676L57.3994 72.4495L83.297 46.6624ZM83.297 44.898L55.6962 72.4495L83.2287 99.864L110.83 72.3135L83.297 44.898ZM28.1635 46.7304L53.9246 72.4495L28.027 98.2356L2.26606 72.5175L28.1635 46.7304ZM28.1635 45.034L0.562256 72.5855L28.0952 100L55.6962 72.4495L28.1635 45.034ZM83.3653 -8.30273L109.126 17.4155L83.2287 43.2016L57.4677 17.4835L83.3653 -8.30273ZM83.3653 -10L55.7645 17.4835L83.297 44.898L110.898 17.3475L83.3653 -10Z" fill="white"/>
</svg>
