<svg width="99" height="100" viewBox="0 0 99 100" fill="none" xmlns="http://www.w3.org/2000/svg">
<g id="Group 41">
<path id="Vector" d="M52.4044 47.4449C51.1833 74.4691 29.461 96.333 2.44601 97.5541V47.4449H52.4044ZM54.8484 44.999H0.00195312V99.9999C30.2756 99.9999 54.8484 75.4198 54.8484 44.999Z" fill="white"/>
<path id="Vector_2" d="M107.385 47.4449C106.164 74.4691 84.4415 96.333 57.4247 97.5541V47.4449H107.385ZM109.829 44.9991H54.8464V100C85.2562 100 109.829 75.4198 109.829 44.9991ZM52.4024 -7.69206C51.1813 19.3321 29.4608 41.1978 2.44403 42.4189V-7.69206H52.4024ZM54.8464 -10H0V45.0009C30.2737 45.0009 54.8464 20.2847 54.8464 -10Z" fill="white"/>
<path id="Vector_3" d="M107.387 -7.69206C106.164 19.3321 84.4417 41.1978 57.4268 42.4189V-7.69206H107.387ZM109.829 -10H54.8485L54.8467 44.9991C85.2564 44.9991 109.829 20.2847 109.829 -10Z" fill="white"/>
</g>
</svg>
