<svg width="44" height="39" viewBox="0 0 44 39" fill="none" xmlns="http://www.w3.org/2000/svg">
<path id="Vector" d="M43.6638 4.10089C42.45 2.80684 40.9818 1.77501 39.3502 1.06953C37.7187 0.364053 35.9587 0 34.1798 0C32.4008 0 30.6409 0.364053 29.0093 1.06953C27.3778 1.77501 25.9095 2.80684 24.6957 4.10089C23.5635 5.2852 22.6497 6.65856 21.996 8.15809C21.3419 6.65997 20.4281 5.28799 19.2963 4.10487C18.0825 2.81082 16.6142 1.77899 14.9827 1.07351C13.3511 0.368033 11.5912 0.00397893 9.81223 0.00397893C8.03328 0.00397893 6.27334 0.368033 4.6418 1.07351C3.01025 1.77899 1.54196 2.81082 0.328193 4.10487C0.195325 4.24463 0.0983701 4.41427 0.045583 4.59935C-0.00720396 4.78442 -0.0142591 4.97945 0.0250186 5.16782C0.0642962 5.35619 0.148743 5.53233 0.271169 5.68124C0.393594 5.83014 0.550372 5.9474 0.728153 6.02304L13.0929 11.3756C12.7229 11.4433 12.353 11.5228 11.985 11.6203C10.2107 12.0827 8.54604 12.8903 7.08724 13.9966C5.62844 15.1028 4.40441 16.4857 3.48587 18.0653C2.56117 19.6352 1.96101 21.373 1.72062 23.1768C1.48023 24.9806 1.60446 26.8141 2.08602 28.5695C2.1372 28.7586 2.2344 28.9324 2.36902 29.0753C2.50363 29.2183 2.67155 29.3261 2.85794 29.3893C2.98231 29.431 3.11264 29.4525 3.2439 29.4529C3.50694 29.453 3.7627 29.367 3.97182 29.2082L20.7961 16.4436V37.8061C20.7961 38.1228 20.9225 38.4264 21.1476 38.6503C21.3726 38.8742 21.6778 39 21.996 39C22.3142 39 22.6194 38.8742 22.8444 38.6503C23.0695 38.4264 23.1959 38.1228 23.1959 37.8061V16.4436L40.0282 29.2042C40.2373 29.363 40.4931 29.449 40.7561 29.449C40.8874 29.4485 41.0177 29.427 41.1421 29.3853C41.3285 29.3221 41.4964 29.2143 41.631 29.0714C41.7656 28.9284 41.8628 28.7547 41.914 28.5655C42.3955 26.8101 42.5198 24.9767 42.2794 23.1729C42.039 21.369 41.4388 19.6312 40.5141 18.0613C39.5956 16.4817 38.3716 15.0988 36.9128 13.9926C35.454 12.8864 33.7893 12.0787 32.015 11.6164C31.647 11.5189 31.2771 11.4393 30.9071 11.3716L43.2719 6.01906C43.4496 5.94342 43.6064 5.82616 43.7288 5.67726C43.8513 5.52835 43.9357 5.35221 43.975 5.16384C44.0143 4.97547 44.0072 4.78044 43.9544 4.59537C43.9016 4.41029 43.8047 4.24065 43.6718 4.10089H43.6638ZM9.81323 2.38767C11.2664 2.39109 12.7034 2.69091 14.0356 3.2686C15.3677 3.8463 16.5667 4.68962 17.5585 5.74646C19.2126 7.48154 20.2924 9.67956 20.6521 12.0442L3.38388 4.57645C5.22454 3.15908 7.48575 2.38929 9.81323 2.38767ZM4.05582 26.132C3.80725 23.7417 4.33125 21.3348 5.55166 19.2612C6.31437 17.9538 7.32956 16.8095 8.53872 15.8943C9.74788 14.9791 11.1271 14.311 12.597 13.9285C13.5832 13.6658 14.5997 13.532 15.6206 13.5306C17.0164 13.5299 18.4007 13.7814 19.7062 14.2728L4.05582 26.132ZM38.4403 19.2612C39.6607 21.3348 40.1847 23.7417 39.9362 26.132L24.2898 14.2708C26.8611 13.3084 29.6916 13.2815 32.281 14.1946C34.8704 15.1078 37.052 16.9024 38.4403 19.2612ZM23.3399 12.0442C23.6996 9.67956 24.7794 7.48154 26.4336 5.74646C27.4253 4.68962 28.6243 3.8463 29.9564 3.2686C31.2886 2.69091 32.7256 2.39109 34.1788 2.38767C36.5063 2.38929 38.7675 3.15908 40.6081 4.57645L23.3399 12.0442Z" fill="white"/>
</svg>
