<svg width="93" height="100" viewBox="0 0 93 100" fill="none" xmlns="http://www.w3.org/2000/svg">
<path id="Vector" d="M82.4076 48.53L106.3 72.4316L82.2715 96.4691L58.3773 72.5676L82.4076 48.53ZM82.4076 45.001L54.8483 72.5676L82.2715 100L109.831 72.4316L82.4076 45.001ZM27.5593 48.53L51.4535 72.4316L27.4232 96.4691L3.52905 72.5676L27.5593 48.53ZM27.5593 45.1352L0 72.5676L27.4232 100L54.9825 72.4316L27.5593 45.1352ZM82.5418 -6.46903L106.434 17.4325L82.4058 41.4701L58.5116 17.5686L82.5418 -6.46903ZM82.5418 -10L54.9825 17.5686L82.4076 45.001L109.963 17.4325L82.5418 -10ZM27.5612 -6.46903L51.4535 17.4325L27.4251 41.4701L3.5309 17.5686L27.5612 -6.46903ZM27.5612 -10L0.00183799 17.5686L27.4251 45.001L54.9844 17.4325L27.5612 -10Z" fill="white"/>
</svg>
