<svg width="87" height="100" viewBox="0 0 87 100" fill="none" xmlns="http://www.w3.org/2000/svg">
<g id="Group 43">
<path id="Vector" d="M27.5257 -7.55895C41.3564 -7.55895 52.4744 3.69891 52.4744 17.3978C52.4744 31.2334 41.2205 42.3555 27.5257 42.3555C13.6949 42.3555 2.577 31.0977 2.577 17.3978C2.577 3.69891 13.6949 -7.55895 27.5257 -7.55895ZM27.5257 -10C12.3375 -10 0 2.34266 0 17.5336C0 32.7256 12.3375 45.0682 27.5257 45.0682C42.712 45.0682 55.0514 32.7256 55.0514 17.5336C54.9154 2.20674 42.712 -10 27.5257 -10ZM82.4392 47.3724C96.27 47.3724 107.388 58.6303 107.388 72.3292C107.388 86.1655 96.1341 97.2871 82.4392 97.2871C68.6084 97.2871 57.4906 86.0296 57.4906 72.3292C57.4906 58.6303 68.6084 47.3724 82.4392 47.3724ZM82.4392 44.9314C67.2529 44.9314 54.9136 57.274 54.9136 72.4651C54.9136 87.657 67.2529 100 82.4392 100C97.6256 100 109.965 87.657 109.965 72.4651C109.829 57.274 97.6256 44.9314 82.4392 44.9314Z" fill="white"/>
<path id="Vector_2" d="M107.559 17.5257C107.559 31.3564 96.3013 42.4744 82.6024 42.4744C68.7669 42.4744 57.6447 31.2205 57.6447 17.5256C57.6447 3.69486 68.9026 -7.423 82.6024 -7.423C96.3013 -7.423 107.559 3.69486 107.559 17.5257ZM110 17.5257C110 2.33749 97.6576 -10 82.4667 -10C67.2747 -10 54.932 2.33749 54.932 17.5256C54.932 32.712 67.2747 45.0514 82.4667 45.0514C97.7935 44.9154 110 32.712 110 17.5257ZM52.6278 72.4392C52.6278 86.27 41.3699 97.3879 27.671 97.3879C13.8347 97.3879 2.71314 86.1341 2.71314 72.4392C2.71314 58.6084 13.9706 47.4906 27.671 47.4906C41.3699 47.4906 52.6278 58.6084 52.6278 72.4392ZM55.0688 72.4392C55.0688 57.2529 42.7262 44.9136 27.5351 44.9136C12.3433 44.9136 0.00024883 57.2529 0.000248166 72.4392C0.000247503 87.6256 12.3433 99.9649 27.5351 99.9649C42.7262 99.829 55.0688 87.6256 55.0688 72.4392Z" fill="white"/>
</g>
</svg>
