<svg width="44" height="44" viewBox="0 0 44 44" fill="none" xmlns="http://www.w3.org/2000/svg">
<g id="Group 54">
<path id="Vector" d="M22 44C9.83529 44 0 34.1647 0 22C0 9.83529 9.83529 0 22 0C34.1647 0 44 9.83529 44 22C44 34.1647 34.0353 44 22 44ZM22 2.58824C11.2588 2.58824 2.58824 11.2588 2.58824 22C2.58824 32.7412 11.2588 41.4118 22 41.4118C32.7412 41.4118 41.4118 32.7412 41.4118 22C41.4118 11.2588 32.6118 2.58824 22 2.58824Z" fill="white"/>
<path id="Vector_2" d="M9.31769 37.9177L6.98828 36.8824C7.63534 35.3295 9.70593 34.4236 11.9059 33.3883C14.1059 32.353 16.8236 31.1883 16.8236 29.7647V27.8236C16.0471 27.1765 14.753 25.753 14.4942 23.6824C13.8471 23.0353 12.8118 21.8706 12.8118 20.3177C12.8118 19.4118 13.2 18.6353 13.4589 18.1177C13.2 17.0824 12.9412 15.1412 12.9412 13.5883C12.9412 8.54122 16.4353 5.17651 22 5.17651C23.553 5.17651 25.4942 5.56475 26.5295 6.72945C28.9883 7.2471 31.0589 10.0942 31.0589 13.5883C31.0589 15.7883 30.6706 17.6 30.4118 18.5059C30.6706 18.8942 30.9295 19.5412 30.9295 20.3177C30.9295 22 30.0236 23.1647 29.2471 23.6824C28.9883 25.753 27.8236 27.0471 27.0471 27.6942V29.7647C27.0471 30.9295 29.3765 31.8353 31.4471 32.6118C33.9059 33.5177 36.4942 34.553 37.4 36.6236L34.9412 37.5295C34.553 36.4942 32.4824 35.7177 30.5412 35.0706C27.6942 34.0353 24.4589 32.8706 24.4589 29.8942V26.5295L25.1059 26.1412C25.1059 26.1412 26.6589 25.1059 26.6589 23.0353V22.1295L27.4353 21.7412C27.5647 21.7412 28.2118 21.353 28.2118 20.3177C28.2118 20.0589 27.953 19.6706 27.8236 19.5412L27.3059 19.0236L27.5648 18.3765C27.5648 18.3765 28.2118 16.3059 28.2118 13.7177C28.2118 11.2589 26.7883 9.4471 25.6236 9.4471H24.8471L24.4589 8.80004C24.4589 8.2824 23.553 7.76475 22 7.76475C17.9883 7.76475 15.5295 9.96475 15.5295 13.5883C15.5295 15.2706 16.1765 18.1177 16.1765 18.1177L16.3059 18.7647L15.7883 19.4118C15.6589 19.4118 15.4 19.8 15.4 20.3177C15.4 20.9648 16.1765 21.7412 16.5648 22L17.0824 22.3883V23.0353C17.0824 24.9765 18.7648 26.0118 18.7648 26.1412L19.4118 26.5295V29.8942C19.4118 33 16.0471 34.553 12.9412 35.8471C11.5177 36.3648 9.57652 37.2706 9.31769 37.9177Z" fill="white"/>
</g>
</svg>
