<svg width="44" height="44" viewBox="0 0 44 44" fill="none" xmlns="http://www.w3.org/2000/svg">
<g id="simple-icons:photobucket" clip-path="url(#clip0_371_139)">
<path id="Vector" d="M32.8607 20.9934C32.9688 22.1466 32.9028 22.5518 32.5527 22.9038C32.0247 23.4318 31.35 23.4758 30.7762 23.0211C30.5433 22.8378 30.283 22.0678 30.1858 21.2776C29.9699 19.5951 29.2764 18.0096 28.1875 16.7089C27.1425 15.4403 24.5117 14.1294 23.0138 14.1294C21.8185 14.1294 20.8157 13.4676 20.8157 12.6793C20.8157 12.1916 21.7452 11.2309 22.2163 11.2309C22.407 11.2309 23.2613 11.3611 24.1138 11.5169C28.776 12.3786 32.4225 16.3294 32.8607 20.9934ZM44 22.0916C44 34.0651 43.9853 34.4318 43.472 34.9433C42.977 35.4383 42.5938 35.4694 37.1415 35.4694H31.339L29.502 36.3934C28.4918 36.9013 26.9243 37.4934 26.0168 37.7061C23.958 38.1919 20.3867 38.1773 18.3095 37.6768C17.4405 37.4659 15.9188 36.8829 14.9288 36.3806L13.1303 35.4676H7.00333C1.39883 35.4676 0.835992 35.4254 0.438159 34.9854C0.0439919 34.5528 -8.05478e-06 33.2658 -8.05478e-06 21.9871C-8.05478e-06 8.00978 -0.0990079 8.73211 1.84433 8.55061C2.59783 8.47911 2.78299 8.34528 2.85816 7.80628C3.01583 6.66045 3.36049 6.48811 5.51283 6.48811C7.73666 6.48811 8.16749 6.70995 8.16749 7.85761V8.59461H10.5545C12.782 8.59461 13.0863 8.52678 15.0993 7.57161C17.8768 6.25528 19.2683 5.93628 22.264 5.93628C25.278 5.93628 26.6805 6.25711 29.3865 7.56978L31.504 8.59645H37.3413C43.0742 8.59645 43.186 8.60745 43.5893 9.18128C43.9468 9.69095 44 11.3629 44 22.0916ZM4.74283 8.33245C4.74283 8.47728 5.09849 8.59645 5.53299 8.59645C5.96749 8.59645 6.32316 8.47728 6.32316 8.33245C6.32316 8.18761 5.96749 8.06845 5.53299 8.06845C5.09849 8.06845 4.74283 8.18761 4.74283 8.33245ZM10.0118 32.7048C10.0118 32.6333 9.62683 32.0704 9.15566 31.4526C5.29099 26.3908 5.15166 18.5771 8.82566 13.0789L9.97333 11.3629L6.66966 11.2896C4.46233 11.2383 3.24683 11.3153 3.00116 11.5188C2.70049 11.7681 2.63449 13.6088 2.63449 21.8184C2.63449 28.2058 2.73349 31.9989 2.90766 32.3253C3.15516 32.7891 3.48883 32.8349 6.59633 32.8349C8.47549 32.8349 10.0118 32.7763 10.0118 32.7048ZM34.1807 15.8436C33.2328 13.9498 30.4663 11.1264 28.5688 10.1144C24.7775 8.09411 19.7523 8.09411 15.961 10.1144C13.8233 11.2548 11.22 14.0139 10.1493 16.2744C9.39065 17.8573 8.95263 19.5746 8.86052 21.3275C8.7684 23.0803 9.024 24.8341 9.6126 26.4878C10.2012 28.1414 11.1111 29.6623 12.2901 30.9628C13.469 32.2632 14.8935 33.3176 16.4817 34.0651C19.2903 35.4053 21.8552 35.7554 24.7958 35.2018C26.7612 34.8314 29.6542 33.3941 31.2015 32.0173C35.6987 28.0206 36.9288 21.3381 34.1807 15.8436ZM41.0392 21.8826L40.9695 11.3611L37.7043 11.2859L34.4392 11.2126L34.8737 11.8139C39.3085 17.9629 39.6055 25.0488 35.6748 30.9099C35.0368 31.8614 34.5143 32.6828 34.5143 32.7359C34.5143 32.9339 40.4543 32.8166 40.7752 32.6131C41.0355 32.4499 41.0923 30.1253 41.0392 21.8826Z" fill="white"/>
</g>
<defs>
<clipPath id="clip0_371_139">
<rect width="44" height="44" fill="white"/>
</clipPath>
</defs>
</svg>
