<svg width="60" height="100" viewBox="0 0 60 100" fill="none" xmlns="http://www.w3.org/2000/svg">
<g id="Group 47">
<path id="Vector" d="M71.5903 28.3876C71.1379 37.0788 67.6082 45.3175 61.3641 51.4733C55.1188 57.7198 46.9732 61.252 38.2845 61.7044C39.1893 43.6869 53.6697 29.2017 71.5903 28.3876ZM73.3104 26.6675C53.0371 26.6675 36.6552 43.0543 36.6552 63.3338C56.8377 63.3338 73.3104 46.9469 73.3104 26.6675ZM71.5903 65.0538C71.1379 73.745 67.6082 81.9838 61.3641 88.1408C55.1188 94.3873 46.9732 97.9183 38.2845 98.3707C39.1893 80.3545 53.6697 65.8679 71.5903 65.0538ZM73.3104 63.3338C53.0371 63.3338 36.6552 79.7206 36.6552 100C56.8377 100 73.3104 83.6132 73.3104 63.3338Z" fill="white"/>
<path id="Vector_2" d="M1.62936 65.0538C19.6407 65.8679 34.1223 80.3545 34.9364 98.3707C16.9251 97.5566 2.44343 83.07 1.62936 65.0538ZM0.00121598 63.3338C0.00121598 83.6132 16.382 100 36.6552 100C36.6552 79.8113 20.1838 63.3338 0.00121598 63.3338ZM1.63059 28.3876C19.6419 29.2017 34.1223 43.6869 34.9364 61.7044C16.9263 60.7984 2.44467 46.3131 1.63059 28.3876ZM0.00121598 26.6675C0.00121598 46.9469 16.3832 63.3338 36.6564 63.3338C36.6564 43.1438 20.1838 26.6675 0.00121598 26.6675ZM71.5904 -8.37062C71.1392 0.32056 67.6083 8.55934 61.3642 14.7164C55.1189 20.9629 46.9733 24.4938 38.2846 24.9462C39.1894 7.02069 53.671 -7.46583 71.5904 -8.37062ZM73.3104 -10C53.0372 -10 36.6552 6.38682 36.6552 26.6662C56.839 26.6662 73.3104 10.2794 73.3104 -10ZM1.62936 -8.37062C19.6407 -7.55532 34.1211 6.92996 34.9351 24.9462C16.9251 24.1321 2.44343 9.64559 1.62936 -8.37062ZM0 -10C0 10.2794 16.382 26.6662 36.6552 26.6662C36.6552 6.38682 20.1826 -10 0 -10Z" fill="white"/>
</g>
</svg>
