<svg width="44" height="44" viewBox="0 0 44 44" fill="none" xmlns="http://www.w3.org/2000/svg">
<g id="gis:route" clip-path="url(#clip0_371_174)">
<path id="Vector" d="M9.24 14.08C4.16196 14.08 0 18.2292 0 23.2936C0 25.256 0.62656 27.0798 1.6874 28.5789L8.11272 39.6862C9.01252 40.8619 9.61092 40.6388 10.3594 39.6246L17.446 27.5642C17.589 27.3046 17.7012 27.0292 17.7993 26.7476C18.249 25.6516 18.4803 24.4783 18.48 23.2936C18.48 18.2292 14.3194 14.08 9.24 14.08ZM9.24 18.3973C11.975 18.3973 14.1504 20.5669 14.1504 23.294C14.1504 26.0212 11.975 28.1899 9.24 28.1899C6.5054 28.1899 4.3296 26.0207 4.3296 23.294C4.3296 20.5669 6.5054 18.3973 9.24 18.3973ZM38.61 0C35.6479 0 33.22 2.42044 33.22 5.37504C33.22 6.51948 33.5852 7.5834 34.2043 8.45768L37.9526 14.9371C38.4776 15.6226 38.8265 15.4924 39.263 14.901L43.3968 7.86544C43.4804 7.71452 43.5459 7.55392 43.6027 7.38936C43.8651 6.75022 44.0001 6.06595 44 5.37504C44 2.42 41.573 0 38.61 0ZM38.61 2.51856C40.2054 2.51856 41.4744 3.784 41.4744 5.37504C41.4744 6.96564 40.2054 8.23064 38.61 8.23064C37.015 8.23064 35.7456 6.96564 35.7456 5.37504C35.7456 3.784 37.015 2.51856 38.61 2.51856Z" fill="white"/>
<path id="Vector_2" fill-rule="evenodd" clip-rule="evenodd" d="M38.812 16.4613C37.8233 16.4833 36.832 16.5251 35.8389 16.5986L35.992 19.0327C36.9459 18.9636 37.9015 18.9191 38.8577 18.8993L38.812 16.4613ZM33.543 16.8221C32.0162 17.0117 30.4762 17.2819 28.9538 17.7162L29.5271 20.075C30.9105 19.6808 32.344 19.426 33.7999 19.2452L33.543 16.8221ZM26.6741 18.5328C26.218 18.7342 25.7763 18.9669 25.3524 19.2293L25.3506 19.2315L25.348 19.2324C24.743 19.6135 24.1054 20.097 23.5849 20.7997C23.2078 21.3088 22.8994 21.9525 22.8272 22.7137L25.069 22.9623C25.0857 22.7837 25.1773 22.5478 25.3418 22.3261H25.3427V22.3252C25.608 21.9661 26.0058 21.6401 26.4788 21.3418L26.4805 21.3409C26.8177 21.1328 27.1688 20.9482 27.5312 20.7883L26.6741 18.5328ZM25.52 24.0482L24.0667 25.9116C24.4112 26.2267 24.7725 26.4687 25.1214 26.6711L25.1258 26.6733L25.1302 26.6759C26.2882 27.3346 27.4824 27.7064 28.5895 28.0593L29.2257 25.7193C28.1191 25.3665 27.0759 25.0259 26.1818 24.5181C25.9257 24.3694 25.7013 24.2141 25.52 24.0482ZM31.3874 26.3776L30.7661 28.7215L31.0601 28.813L31.4209 28.9283C32.615 29.3168 33.759 29.7317 34.7816 30.3059L35.8191 28.1411C34.5827 27.4463 33.2992 26.9923 32.0624 26.5901L32.0589 26.5892L31.6884 26.4709L31.3874 26.3776ZM37.9289 29.7656L36.3348 31.4904C36.7114 31.8983 36.9935 32.3889 37.1307 32.8957L37.1316 32.8984L37.1325 32.9023C37.2962 33.4941 37.2966 34.1902 37.1686 34.8933L39.3791 35.365C39.5595 34.3724 39.5886 33.2825 39.292 32.2067C39.0337 31.2554 38.5409 30.4291 37.9289 29.7656ZM36.3968 36.3629C36.1532 36.6202 35.884 36.852 35.5934 37.0546H35.5925C34.8005 37.6117 33.8818 38.0314 32.9059 38.3922L33.6336 40.6996C34.7011 40.3049 35.7971 39.8209 36.8214 39.1002L36.8241 39.098L36.8254 39.0971C37.246 38.8026 37.6352 38.4653 37.9865 38.0908L36.3968 36.3629ZM30.8352 39.0421C29.4215 39.4223 27.9765 39.7118 26.514 39.9573L26.8589 42.3681C28.3642 42.1151 29.8756 41.8128 31.3777 41.4089L30.8352 39.0421ZM24.3135 40.2899C22.8413 40.491 21.3611 40.6551 19.8766 40.7951L20.0711 43.2247C21.5785 43.0831 23.0886 42.9163 24.5965 42.7099L24.3135 40.2899ZM17.6453 40.9865C16.1577 41.1044 14.6665 41.2003 13.1741 41.2813L13.2867 43.7171C14.7937 43.6357 16.302 43.5385 17.8099 43.4188L17.6453 40.9865ZM10.9314 41.3913C10.0369 41.4331 9.14013 41.4674 8.24121 41.4991L8.31513 43.9371C9.21967 43.906 10.124 43.8699 11.0282 43.8289L10.9314 41.3913Z" fill="white"/>
</g>
<defs>
<clipPath id="clip0_371_174">
<rect width="44" height="44" fill="white"/>
</clipPath>
</defs>
</svg>
