<svg width="101" height="100" viewBox="0 0 101 100" fill="none" xmlns="http://www.w3.org/2000/svg">
<path id="Vector" d="M52.5746 51.0742V80.117L35.3433 97.0824V68.0386L52.5746 51.0742ZM53.7949 48.2236L34.122 67.5635V100L53.7949 80.6601V48.2236ZM57.2556 51.0742L74.4865 68.0386V97.0824L57.2556 80.117V51.0742ZM56.0344 48.2236V80.6601L75.7069 100V67.5635L56.0344 48.2236ZM89.1389 47.3414L106.845 64.5099H77.8103L60.1043 47.3414H89.1389ZM89.682 46.1202H57.1196L77.3352 65.7311H109.898L89.682 46.1202ZM106.845 25.491L89.1389 42.6595H60.1043L77.8103 25.491H106.845ZM109.898 24.2689H77.3352L57.1196 43.8807H89.682L109.898 24.2689ZM74.5545 -7.08147V21.9623L57.3236 38.9268V9.88296L74.5545 -7.08147ZM75.7758 -10L56.1024 9.33986V41.7764L75.7758 22.4374V-10ZM35.3433 -7.08147L52.5746 9.88296V38.9268L35.3433 21.9623V-7.08147ZM34.122 -10V22.4374L53.7949 41.7764V9.33986L34.122 -10ZM32.0877 25.491L49.793 42.6595H20.7587L3.05306 25.491H32.0877ZM32.5624 24.2689H0L20.216 43.8807H52.7777L32.5624 24.2689ZM49.793 47.3414L32.0877 64.5099H2.98506L20.6907 47.3414H49.793ZM52.7777 46.1202H20.216L0 65.7311H32.5624L52.7777 46.1202Z" fill="white"/>
</svg>
