<svg width="95" height="100" viewBox="0 0 95 100" fill="none" xmlns="http://www.w3.org/2000/svg">
<g id="Group 50">
<path id="Vector" d="M106.308 -7.5541C105.909 19.8783 84.0574 42.1486 57.147 42.555V-7.5541H106.308ZM108.707 -10H54.7485V45.0009H56.4793C85.3911 45.0009 108.707 21.0994 108.707 -8.37061V-10Z" fill="white"/>
<path id="Vector_2" d="M52.3483 -7.55412V42.5569C25.4361 42.1486 3.58615 19.8764 3.1873 -7.55412H52.3483ZM54.7468 -9.99817H0.788818V-8.23454C0.788818 21.2355 24.2378 45.137 53.0143 45.137H54.7468V-9.99817ZM106.173 47.581C104.974 74.6051 83.6569 96.3348 57.1453 97.5559C58.3436 70.5318 79.6594 48.8021 106.173 47.581ZM108.705 45.0009C78.8617 45.0009 54.7468 69.581 54.7468 99.9999C84.4564 99.9999 108.705 75.4198 108.705 45.0009ZM3.18551 47.581C29.6989 48.8021 51.0164 70.5318 52.2147 97.5559C39.4246 97.0134 27.4339 91.581 18.2406 82.2112C9.04909 72.8397 3.85326 60.6177 3.18551 47.581ZM0.788818 45.0009C0.788818 75.4198 24.9019 99.9999 54.7468 99.9999C54.7468 69.7171 30.4984 45.0009 0.788818 45.0009Z" fill="white"/>
</g>
</svg>
