<svg width="41" height="44" viewBox="0 0 41 44" fill="none" xmlns="http://www.w3.org/2000/svg">
<g id="fluent:document-bullet-list-cube-16-filled">
<path id="Vector" d="M26.3846 0V10.2643C26.3846 11.431 26.8466 12.5499 27.6688 13.3748C28.4911 14.1998 29.6064 14.6633 30.7692 14.6633H41V36.6582C41 37.8249 40.5381 38.9438 39.7158 39.7687C38.8935 40.5937 37.7783 41.0572 36.6154 41.0572H27.3405C27.9589 40.507 28.4539 39.8315 28.793 39.0752C29.1321 38.319 29.3075 37.4992 29.3077 36.6699V35.1919H33.6923C34.0799 35.1919 34.4517 35.0374 34.7258 34.7624C34.9999 34.4874 35.1538 34.1144 35.1538 33.7255C35.1538 33.3366 34.9999 32.9637 34.7258 32.6887C34.4517 32.4137 34.0799 32.2592 33.6923 32.2592H29.3077V29.3266H33.6923C34.0799 29.3266 34.4517 29.1721 34.7258 28.8971C34.9999 28.6221 35.1538 28.2491 35.1538 27.8602C35.1538 27.4713 34.9999 27.0984 34.7258 26.8234C34.4517 26.5484 34.0799 26.3939 33.6923 26.3939H29.3077V24.9276C29.3077 24.4261 29.2434 23.9334 29.1235 23.4612H33.6923C34.0799 23.4612 34.4517 23.3068 34.7258 23.0318C34.9999 22.7568 35.1538 22.3838 35.1538 21.9949C35.1538 21.606 34.9999 21.2331 34.7258 20.9581C34.4517 20.6831 34.0799 20.5286 33.6923 20.5286H27.3288C26.9491 20.1928 26.5276 19.9079 26.0748 19.6811L17.3055 15.2821C16.4941 14.8753 15.5994 14.6635 14.6923 14.6635C13.7852 14.6635 12.8905 14.8753 12.0791 15.2821L11.7692 15.4375V4.39898C11.7692 3.2323 12.2312 2.1134 13.0535 1.28843C13.8757 0.463463 14.991 0 16.1538 0H26.3846ZM29.3077 0.733164V10.2643C29.3077 10.6532 29.4617 11.0262 29.7358 11.3011C30.0099 11.5761 30.3816 11.7306 30.7692 11.7306H40.2692L29.3077 0.733164ZM24.7682 22.3058L15.9989 17.9068C15.5932 17.7034 15.1459 17.5975 14.6923 17.5975C14.2387 17.5975 13.7914 17.7034 13.3857 17.9068L4.61646 22.3058C4.13099 22.5492 3.72265 22.9233 3.43715 23.3864C3.15166 23.8494 3.00029 24.3831 3 24.9276V36.6699C3.00029 37.2144 3.15166 37.7481 3.43715 38.2111C3.72265 38.6742 4.13099 39.0483 4.61646 39.2917L13.3857 43.6907C13.7914 43.8941 14.2387 44 14.6923 44C15.1459 44 15.5932 43.8941 15.9989 43.6907L24.7682 39.2917C25.2536 39.0483 25.662 38.6742 25.9475 38.2111C26.233 37.7481 26.3843 37.2144 26.3846 36.6699V24.9276C26.3843 24.3831 26.233 23.8494 25.9475 23.3864C25.662 22.9233 25.2536 22.5492 24.7682 22.3058ZM6.04 25.608C6.11549 25.4307 6.22508 25.2701 6.3625 25.1354C6.49991 25.0007 6.66246 24.8944 6.84083 24.8228C7.0192 24.7512 7.2099 24.7155 7.40202 24.7179C7.59414 24.7203 7.78391 24.7606 7.96046 24.8367L14.6923 27.7312L21.4242 24.8367C21.6007 24.7608 21.7905 24.7206 21.9825 24.7183C22.1746 24.716 22.3653 24.7516 22.5436 24.8233C22.7219 24.8949 22.8845 25.001 23.0219 25.1357C23.1593 25.2703 23.269 25.4308 23.3446 25.608C23.4202 25.7851 23.4603 25.9755 23.4626 26.1682C23.4649 26.3609 23.4294 26.5522 23.358 26.7311C23.2866 26.91 23.1808 27.073 23.0466 27.2109C22.9124 27.3488 22.7524 27.4588 22.5758 27.5347L16.1538 30.2914V38.1245C16.1538 38.5134 15.9999 38.8864 15.7258 39.1614C15.4517 39.4364 15.0799 39.5909 14.6923 39.5909C14.3047 39.5909 13.9329 39.4364 13.6588 39.1614C13.3848 38.8864 13.2308 38.5134 13.2308 38.1245V30.2943L6.80877 27.5318C6.45267 27.3788 6.17168 27.0902 6.02753 26.7295C5.88338 26.3688 5.88786 25.9654 6.04 25.608Z" fill="white"/>
</g>
</svg>
