<svg width="44" height="44" viewBox="0 0 44 44" fill="none" xmlns="http://www.w3.org/2000/svg">
<g id="ion:calendar">
<path id="Vector" d="M41.25 11.0001C41.25 9.54143 40.6705 8.14248 39.6391 7.11103C38.6076 6.07958 37.2087 5.50012 35.75 5.50012H34.375V4.16379C34.375 3.42387 33.8061 2.78879 33.0662 2.75184C32.8803 2.74288 32.6945 2.77176 32.52 2.83673C32.3456 2.9017 32.1862 3.00141 32.0515 3.12981C31.9167 3.25821 31.8094 3.41263 31.7361 3.58372C31.6628 3.7548 31.625 3.93899 31.625 4.12512V5.50012H12.375V4.16379C12.375 3.42387 11.8061 2.78879 11.0662 2.75184C10.8803 2.74288 10.6945 2.77176 10.52 2.83673C10.3456 2.9017 10.1862 3.00141 10.0515 3.12981C9.91671 3.25821 9.80943 3.41263 9.73613 3.58372C9.66282 3.7548 9.62502 3.93899 9.625 4.12512V5.50012H8.25C6.79131 5.50012 5.39236 6.07958 4.36091 7.11103C3.32946 8.14248 2.75 9.54143 2.75 11.0001V12.0314C2.75 12.1225 2.78622 12.21 2.85068 12.2744C2.91515 12.3389 3.00258 12.3751 3.09375 12.3751H40.9062C40.9974 12.3751 41.0849 12.3389 41.1493 12.2744C41.2138 12.21 41.25 12.1225 41.25 12.0314V11.0001ZM2.75 35.7501C2.75 37.2088 3.32946 38.6078 4.36091 39.6392C5.39236 40.6707 6.79131 41.2501 8.25 41.2501H35.75C37.2087 41.2501 38.6076 40.6707 39.6391 39.6392C40.6705 38.6078 41.25 37.2088 41.25 35.7501V15.3829C41.25 15.3146 41.2228 15.249 41.1745 15.2006C41.1261 15.1523 41.0606 15.1251 40.9922 15.1251H3.00781C2.93944 15.1251 2.87386 15.1523 2.82551 15.2006C2.77716 15.249 2.75 15.3146 2.75 15.3829V35.7501ZM32.3125 17.8751C32.7204 17.8751 33.1192 17.9961 33.4584 18.2227C33.7975 18.4493 34.0619 18.7715 34.218 19.1483C34.3741 19.5252 34.415 19.9399 34.3354 20.34C34.2558 20.7401 34.0594 21.1076 33.7709 21.396C33.4825 21.6845 33.115 21.8809 32.7149 21.9605C32.3148 22.0401 31.9001 21.9992 31.5232 21.8431C31.1463 21.687 30.8242 21.4227 30.5976 21.0835C30.371 20.7443 30.25 20.3455 30.25 19.9376C30.25 19.3906 30.4673 18.866 30.8541 18.4792C31.2409 18.0924 31.7655 17.8751 32.3125 17.8751ZM32.3125 24.7501C32.7204 24.7501 33.1192 24.8711 33.4584 25.0977C33.7975 25.3243 34.0619 25.6465 34.218 26.0233C34.3741 26.4002 34.415 26.8149 34.3354 27.215C34.2558 27.6151 34.0594 27.9826 33.7709 28.271C33.4825 28.5595 33.115 28.7559 32.7149 28.8355C32.3148 28.9151 31.9001 28.8742 31.5232 28.7181C31.1463 28.562 30.8242 28.2977 30.5976 27.9585C30.371 27.6193 30.25 27.2205 30.25 26.8126C30.25 26.2656 30.4673 25.741 30.8541 25.3542C31.2409 24.9674 31.7655 24.7501 32.3125 24.7501ZM25.4375 17.8751C25.8454 17.8751 26.2442 17.9961 26.5834 18.2227C26.9225 18.4493 27.1869 18.7715 27.343 19.1483C27.4991 19.5252 27.54 19.9399 27.4604 20.34C27.3808 20.7401 27.1844 21.1076 26.8959 21.396C26.6075 21.6845 26.24 21.8809 25.8399 21.9605C25.4398 22.0401 25.0251 21.9992 24.6482 21.8431C24.2713 21.687 23.9492 21.4227 23.7226 21.0835C23.496 20.7443 23.375 20.3455 23.375 19.9376C23.375 19.3906 23.5923 18.866 23.9791 18.4792C24.3659 18.0924 24.8905 17.8751 25.4375 17.8751ZM25.4375 24.7501C25.8454 24.7501 26.2442 24.8711 26.5834 25.0977C26.9225 25.3243 27.1869 25.6465 27.343 26.0233C27.4991 26.4002 27.54 26.8149 27.4604 27.215C27.3808 27.6151 27.1844 27.9826 26.8959 28.271C26.6075 28.5595 26.24 28.7559 25.8399 28.8355C25.4398 28.9151 25.0251 28.8742 24.6482 28.7181C24.2713 28.562 23.9492 28.2977 23.7226 27.9585C23.496 27.6193 23.375 27.2205 23.375 26.8126C23.375 26.2656 23.5923 25.741 23.9791 25.3542C24.3659 24.9674 24.8905 24.7501 25.4375 24.7501ZM25.4375 31.6251C25.8454 31.6251 26.2442 31.7461 26.5834 31.9727C26.9225 32.1993 27.1869 32.5215 27.343 32.8983C27.4991 33.2752 27.54 33.6899 27.4604 34.09C27.3808 34.4901 27.1844 34.8576 26.8959 35.146C26.6075 35.4345 26.24 35.6309 25.8399 35.7105C25.4398 35.7901 25.0251 35.7492 24.6482 35.5931C24.2713 35.437 23.9492 35.1727 23.7226 34.8335C23.496 34.4943 23.375 34.0955 23.375 33.6876C23.375 33.1406 23.5923 32.616 23.9791 32.2292C24.3659 31.8424 24.8905 31.6251 25.4375 31.6251ZM18.5625 24.7501C18.9704 24.7501 19.3692 24.8711 19.7084 25.0977C20.0475 25.3243 20.3119 25.6465 20.468 26.0233C20.6241 26.4002 20.665 26.8149 20.5854 27.215C20.5058 27.6151 20.3094 27.9826 20.0209 28.271C19.7325 28.5595 19.365 28.7559 18.9649 28.8355C18.5648 28.9151 18.1501 28.8742 17.7732 28.7181C17.3963 28.562 17.0742 28.2977 16.8476 27.9585C16.621 27.6193 16.5 27.2205 16.5 26.8126C16.5 26.2656 16.7173 25.741 17.1041 25.3542C17.4909 24.9674 18.0155 24.7501 18.5625 24.7501ZM18.5625 31.6251C18.9704 31.6251 19.3692 31.7461 19.7084 31.9727C20.0475 32.1993 20.3119 32.5215 20.468 32.8983C20.6241 33.2752 20.665 33.6899 20.5854 34.09C20.5058 34.4901 20.3094 34.8576 20.0209 35.146C19.7325 35.4345 19.365 35.6309 18.9649 35.7105C18.5648 35.7901 18.1501 35.7492 17.7732 35.5931C17.3963 35.437 17.0742 35.1727 16.8476 34.8335C16.621 34.4943 16.5 34.0955 16.5 33.6876C16.5 33.1406 16.7173 32.616 17.1041 32.2292C17.4909 31.8424 18.0155 31.6251 18.5625 31.6251ZM11.6875 24.7501C12.0954 24.7501 12.4942 24.8711 12.8334 25.0977C13.1725 25.3243 13.4369 25.6465 13.593 26.0233C13.7491 26.4002 13.79 26.8149 13.7104 27.215C13.6308 27.6151 13.4344 27.9826 13.1459 28.271C12.8575 28.5595 12.49 28.7559 12.0899 28.8355C11.6898 28.9151 11.2751 28.8742 10.8982 28.7181C10.5213 28.562 10.1992 28.2977 9.97259 27.9585C9.74596 27.6193 9.625 27.2205 9.625 26.8126C9.625 26.2656 9.8423 25.741 10.2291 25.3542C10.6159 24.9674 11.1405 24.7501 11.6875 24.7501ZM11.6875 31.6251C12.0954 31.6251 12.4942 31.7461 12.8334 31.9727C13.1725 32.1993 13.4369 32.5215 13.593 32.8983C13.7491 33.2752 13.79 33.6899 13.7104 34.09C13.6308 34.4901 13.4344 34.8576 13.1459 35.146C12.8575 35.4345 12.49 35.6309 12.0899 35.7105C11.6898 35.7901 11.2751 35.7492 10.8982 35.5931C10.5213 35.437 10.1992 35.1727 9.97259 34.8335C9.74596 34.4943 9.625 34.0955 9.625 33.6876C9.625 33.1406 9.8423 32.616 10.2291 32.2292C10.6159 31.8424 11.1405 31.6251 11.6875 31.6251Z" fill="white"/>
</g>
</svg>
