<svg width="129" height="110" viewBox="0 0 129 110" fill="none" xmlns="http://www.w3.org/2000/svg">
<g id="Group 45">
<path id="Vector" d="M7.13964 5.55533C9.59972 7.85721 12.7734 9.12658 16.2642 9.12658C19.6754 9.12658 22.9286 7.85667 25.3887 5.55587C27.2125 3.8091 29.7522 2.85709 32.3702 2.85709C34.9883 2.85709 37.4484 3.8091 39.3517 5.55533C41.8118 7.85721 44.9855 9.12658 48.4763 9.12658C51.8875 9.12658 55.1407 7.85667 57.6008 5.55587C59.4246 3.8091 61.9642 2.85709 64.5823 2.85709C67.2004 2.85709 69.6594 3.8091 71.5638 5.55533C74.0239 7.85721 77.1976 9.12658 80.6883 9.12658C84.0996 9.12658 87.3528 7.85667 89.8118 5.55587C91.6367 3.8091 94.1763 2.85709 96.7944 2.85709C99.4124 2.85709 101.871 3.8091 103.776 5.55533C106.236 7.85721 109.409 9.12658 112.9 9.12658C116.312 9.12658 119.565 7.85667 122.024 5.55587C123.849 3.8091 126.309 2.85709 129.006 2.85709V4.61228e-06C125.674 4.61228e-06 122.42 1.19043 119.882 3.57072C118.057 5.31738 115.598 6.2695 112.9 6.2695C110.282 6.2695 107.822 5.31738 105.918 3.57126C100.919 -1.19042 92.748 -1.19042 87.7494 3.57126C85.9245 5.31738 83.3859 6.2695 80.7668 6.2695C78.1487 6.2695 75.6897 5.31738 73.7853 3.57126C68.7878 -1.19042 60.6154 -1.19042 55.6168 3.57126C53.7919 5.31738 51.2534 6.2695 48.6353 6.2695C46.0162 6.2695 43.5572 5.31738 41.6527 3.57126C36.6541 -1.19042 28.4829 -1.19042 23.4843 3.57126C21.6594 5.31738 19.1208 6.2695 16.5028 6.2695C13.8847 6.2695 11.4246 5.31738 9.52019 3.57126C6.98165 1.19043 3.72842 4.61228e-06 0.396729 4.61228e-06V2.85709C2.7762 2.77767 5.23628 3.8091 7.13964 5.55533Z" fill="white"/>
<path id="Vector_2" d="M119.485 12.6981C117.66 14.4442 115.201 15.3967 112.504 15.3967C109.886 15.3967 107.426 14.4442 105.521 12.6981C100.522 7.93633 92.3512 7.93633 87.3526 12.6981C85.5277 14.4442 82.9881 15.3967 80.37 15.3967C77.752 15.3967 75.293 14.4442 73.3885 12.6981C68.3899 7.93633 60.2187 7.93633 55.2201 12.6981C53.3952 14.4442 50.8566 15.3967 48.2375 15.3967C45.6194 15.3967 43.1604 14.4442 41.256 12.6981C36.2574 7.93633 28.0851 7.93633 23.0875 12.6981C21.2626 14.4442 18.7241 15.3967 16.106 15.3967C13.4869 15.3967 11.0279 14.4442 9.12346 12.6981C6.58492 10.3172 3.33169 9.12725 0 9.12725V11.9839C2.61806 11.9839 5.07705 12.9364 6.98149 14.6826C9.44049 16.984 12.6142 18.2533 16.106 18.2533C19.5173 18.2533 22.7694 16.984 25.2295 14.6826C27.0544 12.9364 29.5929 11.9839 32.211 11.9839C34.8301 11.9839 37.2891 12.9364 39.1936 14.6826C41.6526 16.984 44.8263 18.2533 48.317 18.2533C51.7282 18.2533 54.9826 16.984 57.4416 14.6826C59.2665 12.9364 61.805 11.9839 64.4231 11.9839C67.0411 11.9839 69.5012 12.9364 71.4056 14.6826C73.8646 16.984 77.0384 18.2533 80.5291 18.2533C83.9414 18.2533 87.1936 16.984 89.6537 14.6826C91.4786 12.9364 94.0171 11.9839 96.6351 11.9839C99.2532 11.9839 101.713 12.9364 103.618 14.6826C106.077 16.984 109.25 18.2533 112.741 18.2533C116.153 18.2533 119.406 16.984 121.865 14.6826C123.691 12.9364 126.15 11.9839 128.847 11.9839V9.12671C125.277 9.12671 122.024 10.3172 119.485 12.6981Z" fill="white"/>
<path id="Vector_3" d="M119.485 21.9046C117.66 23.6501 115.201 24.6027 112.504 24.6027C109.886 24.6027 107.426 23.6501 105.521 21.9046C100.522 17.1423 92.3512 17.1423 87.3526 21.9046C85.5277 23.6501 82.9881 24.6027 80.37 24.6027C77.752 24.6027 75.293 23.6501 73.3885 21.9046C68.3899 17.1423 60.2187 17.1423 55.2201 21.9046C53.3952 23.6501 50.8566 24.6027 48.2375 24.6027C45.6194 24.6027 43.1604 23.6501 41.256 21.9046C36.2574 17.1423 28.0851 17.1423 23.0875 21.9046C21.2626 23.6501 18.7241 24.6027 16.106 24.6027C13.4869 24.6027 11.0279 23.6501 9.12346 21.9046C6.58492 19.5231 3.33169 18.3328 0 18.3328V21.1898C2.61806 21.1898 5.07705 22.1424 6.98149 23.8885C9.44049 26.19 12.6142 27.4598 16.106 27.4598C19.5173 27.4598 22.7694 26.19 25.2295 23.8885C27.0544 22.1424 29.5929 21.1898 32.211 21.1898C34.8301 21.1898 37.2891 22.1424 39.1936 23.8885C41.6526 26.19 44.8263 27.4598 48.317 27.4598C51.7282 27.4598 54.9826 26.19 57.4416 23.8885C59.2665 22.1424 61.805 21.1898 64.4231 21.1898C67.0411 21.1898 69.5012 22.1424 71.4056 23.8885C73.8646 26.19 77.0384 27.4598 80.5291 27.4598C83.9414 27.4598 87.1936 26.19 89.6537 23.8885C91.4786 22.1424 94.0171 21.1898 96.6351 21.1898C99.2532 21.1898 101.713 22.1424 103.618 23.8885C106.077 26.19 109.25 27.4598 112.741 27.4598C116.153 27.4598 119.406 26.19 121.865 23.8885C123.691 22.1424 126.15 21.1898 128.847 21.1898V18.3328C125.277 18.3328 122.024 19.4441 119.485 21.9046Z" fill="white"/>
<path id="Vector_4" d="M119.485 31.0313C117.66 32.7774 115.201 33.7299 112.504 33.7299C109.886 33.7299 107.426 32.7774 105.521 31.0313C100.522 26.2695 92.3512 26.2695 87.3526 31.0313C85.5277 32.7774 82.9881 33.7299 80.37 33.7299C77.752 33.7299 75.293 32.7774 73.3885 31.0313C68.3899 26.2695 60.2187 26.2695 55.2201 31.0313C53.3952 32.7774 50.8566 33.7299 48.2375 33.7299C45.6194 33.7299 43.1604 32.7774 41.256 31.0313C36.2574 26.2695 28.0851 26.2695 23.0875 31.0313C21.2626 32.7774 18.7241 33.7299 16.106 33.7299C13.4869 33.7299 11.0279 32.7774 9.12346 31.0313C6.58492 28.6504 3.33169 27.46 0 27.46V30.3171C2.61806 30.3171 5.07705 31.2696 6.98149 33.0152C9.44049 35.3172 12.6142 36.5871 16.106 36.5871C19.5173 36.5871 22.7694 35.3172 25.2295 33.0152C27.0544 31.2696 29.5929 30.3171 32.211 30.3171C34.8301 30.3171 37.2891 31.2696 39.1936 33.0152C41.6526 35.3172 44.8263 36.5871 48.317 36.5871C51.7282 36.5871 54.9826 35.3172 57.4416 33.0152C59.2665 31.2696 61.805 30.3171 64.4231 30.3171C67.0411 30.3171 69.5012 31.2696 71.4056 33.0152C73.8646 35.3172 77.0384 36.5871 80.5291 36.5871C83.9414 36.5871 87.1936 35.3172 89.6537 33.0152C91.4786 31.2696 94.0171 30.3171 96.6351 30.3171C99.2532 30.3171 101.713 31.2696 103.618 33.0152C106.077 35.3172 109.25 36.5871 112.741 36.5871C116.153 36.5871 119.406 35.3172 121.865 33.0152C123.691 31.2696 126.15 30.3171 128.847 30.3171V27.46C125.277 27.46 122.024 28.6504 119.485 31.0313Z" fill="white"/>
<path id="Vector_5" d="M119.485 40.2381C117.66 41.9836 115.201 42.9362 112.504 42.9362C109.886 42.9362 107.426 41.9836 105.521 40.2381C100.522 35.4758 92.3512 35.4758 87.3526 40.2381C85.5277 41.9836 82.9881 42.9362 80.37 42.9362C77.752 42.9362 75.293 41.9836 73.3885 40.2381C68.3899 35.4758 60.2187 35.4758 55.2201 40.2381C53.3952 41.9836 50.8566 42.9362 48.2375 42.9362C45.6194 42.9362 43.1604 41.9836 41.256 40.2381C36.2574 35.4758 28.0851 35.4758 23.0875 40.2381C21.2626 41.9836 18.7241 42.9362 16.106 42.9362C13.4869 42.9362 11.0279 41.9836 9.12346 40.2381C6.58492 37.8566 3.33169 36.6663 0 36.6663V39.5233C2.61806 39.5233 5.07705 40.4759 6.98149 42.222C9.44049 44.5235 12.6142 45.7933 16.106 45.7933C19.5173 45.7933 22.7694 44.5235 25.2295 42.222C27.0544 40.4759 29.5929 39.5233 32.211 39.5233C34.8301 39.5233 37.2891 40.4759 39.1936 42.222C41.6526 44.5235 44.8263 45.7933 48.317 45.7933C51.7282 45.7933 54.9826 44.5235 57.4416 42.222C59.2665 40.4759 61.805 39.5233 64.4231 39.5233C67.0411 39.5233 69.5012 40.4759 71.4056 42.222C73.8646 44.5235 77.0384 45.7933 80.5291 45.7933C83.9414 45.7933 87.1936 44.5235 89.6537 42.222C91.4786 40.4759 94.0171 39.5233 96.6351 39.5233C99.2532 39.5233 101.713 40.4759 103.618 42.222C106.077 44.5235 109.25 45.7933 112.741 45.7933C116.153 45.7933 119.406 44.5235 121.865 42.222C123.691 40.4759 126.15 39.5233 128.847 39.5233V36.6663C125.277 36.6663 122.024 37.8566 119.485 40.2381Z" fill="white"/>
<path id="Vector_6" d="M119.485 49.3648C117.66 51.1109 115.201 52.0634 112.504 52.0634C109.886 52.0634 107.426 51.1109 105.521 49.3648C100.522 44.603 92.3512 44.603 87.3526 49.3648C85.5277 51.1109 82.9881 52.0634 80.37 52.0634C77.752 52.0634 75.293 51.1109 73.3885 49.3648C68.3899 44.603 60.2187 44.603 55.2201 49.3648C53.3952 51.1109 50.8566 52.0634 48.2375 52.0634C45.6194 52.0634 43.1604 51.1109 41.256 49.3648C36.2574 44.603 28.0851 44.603 23.0875 49.3648C21.2626 51.1109 18.7241 52.0634 16.106 52.0634C13.4869 52.0634 11.0279 51.1109 9.12346 49.3648C6.58492 46.9839 3.33169 45.7935 0 45.7935V48.6506C2.61806 48.6506 5.07705 49.6031 6.98149 51.3488C9.44049 53.6507 12.6142 54.9206 16.106 54.9206C19.5173 54.9206 22.7694 53.6507 25.2295 51.3488C27.0544 49.6031 29.5929 48.6506 32.211 48.6506C34.8301 48.6506 37.2891 49.6031 39.1936 51.3488C41.6526 53.6507 44.8263 54.9206 48.317 54.9206C51.7282 54.9206 54.9826 53.6507 57.4416 51.3488C59.2665 49.6031 61.805 48.6506 64.4231 48.6506C67.0411 48.6506 69.5012 49.6031 71.4056 51.3488C73.8646 53.6507 77.0384 54.9206 80.5291 54.9206C83.9414 54.9206 87.1936 53.6507 89.6537 51.3488C91.4786 49.6031 94.0171 48.6506 96.6351 48.6506C99.2532 48.6506 101.713 49.6031 103.618 51.3488C106.077 53.6507 109.25 54.9206 112.741 54.9206C116.153 54.9206 119.406 53.6507 121.865 51.3488C123.691 49.6031 126.15 48.6506 128.847 48.6506V45.7935C125.277 45.7935 122.024 46.9839 119.485 49.3648Z" fill="white"/>
<path id="Vector_7" d="M119.485 58.5713C117.66 60.317 115.201 61.2695 112.504 61.2695C109.886 61.2695 107.426 60.317 105.521 58.5713C100.522 53.8091 92.3512 53.8091 87.3526 58.5713C85.5277 60.317 82.9881 61.2695 80.37 61.2695C77.752 61.2695 75.293 60.317 73.3885 58.5713C68.3899 53.8091 60.2187 53.8091 55.2201 58.5713C53.3952 60.317 50.8566 61.2695 48.2375 61.2695C45.6194 61.2695 43.1604 60.317 41.256 58.5713C36.2574 53.8091 28.0851 53.8091 23.0875 58.5713C21.2626 60.317 18.7241 61.2695 16.106 61.2695C13.4869 61.2695 11.0279 60.317 9.12346 58.5713C6.58492 56.1899 3.33169 54.9995 0 54.9995V57.8566C2.61806 57.8566 5.07705 58.8091 6.98149 60.5554C9.44049 62.8567 12.6142 64.1266 16.106 64.1266C19.5173 64.1266 22.7694 62.8567 25.2295 60.5554C27.0544 58.8091 29.5929 57.8566 32.211 57.8566C34.8301 57.8566 37.2891 58.8091 39.1936 60.5554C41.6526 62.8567 44.8263 64.1266 48.317 64.1266C51.7282 64.1266 54.9826 62.8567 57.4416 60.5554C59.2665 58.8091 61.805 57.8566 64.4231 57.8566C67.0411 57.8566 69.5012 58.8091 71.4056 60.5554C73.8646 62.8567 77.0384 64.1266 80.5291 64.1266C83.9414 64.1266 87.1936 62.8567 89.6537 60.5554C91.4786 58.8091 94.0171 57.8566 96.6351 57.8566C99.2532 57.8566 101.713 58.8091 103.618 60.5554C106.077 62.8567 109.25 64.1266 112.741 64.1266C116.153 64.1266 119.406 62.8567 121.865 60.5554C123.691 58.8091 126.15 57.8566 128.847 57.8566V54.9995C125.277 54.9995 122.024 56.1899 119.485 58.5713Z" fill="white"/>
<path id="Vector_8" d="M119.485 67.7776C117.66 69.5237 115.201 70.4758 112.504 70.4758C109.886 70.4758 107.426 69.5237 105.521 67.7776C100.522 63.0159 92.3512 63.0159 87.3526 67.7776C85.5277 69.5237 82.9881 70.4758 80.37 70.4758C77.752 70.4758 75.293 69.5237 73.3885 67.7776C68.3899 63.0159 60.2187 63.0159 55.2201 67.7776C53.3952 69.5237 50.8566 70.4758 48.2375 70.4758C45.6194 70.4758 43.1604 69.5237 41.256 67.7776C36.2574 63.0159 28.0851 63.0159 23.0875 67.7776C21.2626 69.5237 18.7241 70.4758 16.106 70.4758C13.4869 70.4758 11.0279 69.5237 9.12346 67.7776C6.58492 65.3967 3.33169 64.2064 0 64.2064V67.0634C2.61806 67.0634 5.07705 68.0154 6.98149 69.7617C9.44049 72.0636 12.6142 73.3329 16.106 73.3329C19.5173 73.3329 22.7694 72.0636 25.2295 69.7617C27.0544 68.0154 29.5929 67.0634 32.211 67.0634C34.8301 67.0634 37.2891 68.0154 39.1936 69.7617C41.6526 72.0636 44.8263 73.3329 48.317 73.3329C51.7282 73.3329 54.9826 72.0636 57.4416 69.7617C59.2665 68.0154 61.805 67.0634 64.4231 67.0634C67.0411 67.0634 69.5012 68.0154 71.4056 69.7617C73.8646 72.0636 77.0384 73.3329 80.5291 73.3329C83.9414 73.3329 87.1936 72.0636 89.6537 69.7617C91.4786 68.0154 94.0171 67.0634 96.6351 67.0634C99.2532 67.0634 101.713 68.0154 103.618 69.7617C106.077 72.0636 109.25 73.3329 112.741 73.3329C116.153 73.3329 119.406 72.0636 121.865 69.7617C123.691 68.0154 126.15 67.0634 128.847 67.0634V64.2064C125.277 64.2064 122.024 65.3967 119.485 67.7776Z" fill="white"/>
<path id="Vector_9" d="M119.485 76.9043C117.66 78.65 115.201 79.6025 112.504 79.6025C109.886 79.6025 107.426 78.65 105.521 76.9043C100.522 72.1421 92.3512 72.1421 87.3526 76.9043C85.5277 78.65 82.9881 79.6025 80.37 79.6025C77.752 79.6025 75.293 78.65 73.3885 76.9043C68.3899 72.1421 60.2187 72.1421 55.2201 76.9043C53.3952 78.65 50.8566 79.6025 48.2375 79.6025C45.6194 79.6025 43.1604 78.65 41.256 76.9043C36.2574 72.1421 28.0851 72.1421 23.0875 76.9043C21.2626 78.65 18.7241 79.6025 16.106 79.6025C13.4869 79.6025 11.0279 78.65 9.12346 76.9043C6.58492 74.5229 3.33169 73.3325 0 73.3325V76.1896C2.61806 76.1896 5.07705 77.1421 6.98149 78.8884C9.44049 81.1897 12.6142 82.4596 16.106 82.4596C19.5173 82.4596 22.7694 81.1897 25.2295 78.8884C27.0544 77.1421 29.5929 76.1896 32.211 76.1896C34.8301 76.1896 37.2891 77.1421 39.1936 78.8884C41.6526 81.1897 44.8263 82.4596 48.317 82.4596C51.7282 82.4596 54.9826 81.1897 57.4416 78.8884C59.2665 77.1421 61.805 76.1896 64.4231 76.1896C67.0411 76.1896 69.5012 77.1421 71.4056 78.8884C73.8646 81.1897 77.0384 82.4596 80.5291 82.4596C83.9414 82.4596 87.1936 81.1897 89.6537 78.8884C91.4786 77.1421 94.0171 76.1896 96.6351 76.1896C99.2532 76.1896 101.713 77.1421 103.618 78.8884C106.077 81.1897 109.25 82.4596 112.741 82.4596C116.153 82.4596 119.406 81.1897 121.865 78.8884C123.691 77.1421 126.15 76.1896 128.847 76.1896V73.3325C125.277 73.3325 122.024 74.5229 119.485 76.9043Z" fill="white"/>
<path id="Vector_10" d="M119.485 86.1106C117.66 87.8568 115.201 88.8093 112.504 88.8093C109.886 88.8093 107.426 87.8568 105.521 86.1106C100.522 81.3489 92.3512 81.3489 87.3526 86.1106C85.5277 87.8568 82.9881 88.8093 80.37 88.8093C77.752 88.8093 75.293 87.8568 73.3885 86.1106C68.3899 81.3489 60.2187 81.3489 55.2201 86.1106C53.3952 87.8568 50.8566 88.8093 48.2375 88.8093C45.6194 88.8093 43.1604 87.8568 41.256 86.1106C36.2574 81.3489 28.0851 81.3489 23.0875 86.1106C21.2626 87.8568 18.7241 88.8093 16.106 88.8093C13.4869 88.8093 11.0279 87.8568 9.12346 86.1106C6.58492 83.7298 3.33169 82.5393 0 82.5393V85.3964C2.61806 85.3964 5.07705 86.3489 6.98149 88.0946C9.44049 90.3965 12.6142 91.6664 16.106 91.6664C19.5173 91.6664 22.7694 90.3965 25.2295 88.0946C27.0544 86.3489 29.5929 85.3964 32.211 85.3964C34.8301 85.3964 37.2891 86.3489 39.1936 88.0946C41.6526 90.3965 44.8263 91.6664 48.317 91.6664C51.7282 91.6664 54.9826 90.3965 57.4416 88.0946C59.2665 86.3489 61.805 85.3964 64.4231 85.3964C67.0411 85.3964 69.5012 86.3489 71.4056 88.0946C73.8646 90.3965 77.0384 91.6664 80.5291 91.6664C83.9414 91.6664 87.1936 90.3965 89.6537 88.0946C91.4786 86.3489 94.0171 85.3964 96.6351 85.3964C99.2532 85.3964 101.713 86.3489 103.618 88.0946C106.077 90.3965 109.25 91.6664 112.741 91.6664C116.153 91.6664 119.406 90.3965 121.865 88.0946C123.691 86.3489 126.15 85.3964 128.847 85.3964V82.5393C125.277 82.5393 122.024 83.7298 119.485 86.1106Z" fill="white"/>
<path id="Vector_11" d="M119.485 95.2376C117.66 96.9837 115.201 97.9358 112.504 97.9358C109.886 97.9358 107.426 96.9837 105.521 95.2376C100.522 90.4759 92.3512 90.4759 87.3526 95.2376C85.5277 96.9837 82.9881 97.9358 80.37 97.9358C77.752 97.9358 75.293 96.9837 73.3885 95.2376C68.3899 90.4759 60.2187 90.4759 55.2201 95.2376C53.3952 96.9837 50.8566 97.9358 48.2375 97.9358C45.6194 97.9358 43.1604 96.9837 41.256 95.2376C36.2574 90.4759 28.0851 90.4759 23.0875 95.2376C21.2626 96.9837 18.7241 97.9358 16.106 97.9358C13.4869 97.9358 11.0279 96.9837 9.12346 95.2376C6.58492 92.8567 3.33169 91.6663 0 91.6663V94.5235C2.61806 94.5235 5.07705 95.4755 6.98149 97.2216C9.44049 99.5234 12.6142 100.793 16.106 100.793C19.5173 100.793 22.7694 99.5234 25.2295 97.2216C27.0544 95.4755 29.5929 94.5235 32.211 94.5235C34.8301 94.5235 37.2891 95.4755 39.1936 97.2216C41.6526 99.5234 44.8263 100.793 48.317 100.793C51.7282 100.793 54.9826 99.5234 57.4416 97.2216C59.2665 95.4755 61.805 94.5235 64.4231 94.5235C67.0411 94.5235 69.5012 95.4755 71.4056 97.2216C73.8646 99.5234 77.0384 100.793 80.5291 100.793C83.9414 100.793 87.1936 99.5234 89.6537 97.2216C91.4786 95.4755 94.0171 94.5235 96.6351 94.5235C99.2532 94.5235 101.713 95.4755 103.618 97.2216C106.077 99.5234 109.25 100.793 112.741 100.793C116.153 100.793 119.406 99.5234 121.865 97.2216C123.691 95.4755 126.15 94.5235 128.847 94.5235V91.6663C125.277 91.6663 122.024 92.8567 119.485 95.2376Z" fill="white"/>
<path id="Vector_12" d="M119.485 104.444C117.66 106.19 115.201 107.142 112.504 107.142C109.886 107.142 107.426 106.19 105.521 104.444C100.522 99.6826 92.3512 99.6826 87.3526 104.444C85.5277 106.19 82.9881 107.142 80.37 107.142C77.752 107.142 75.293 106.19 73.3885 104.444C68.3899 99.6826 60.2187 99.6826 55.2201 104.444C53.3952 106.19 50.8566 107.142 48.2375 107.142C45.6194 107.142 43.1604 106.19 41.256 104.444C36.2574 99.6826 28.0851 99.6826 23.0875 104.444C21.2626 106.19 18.7241 107.142 16.106 107.142C13.4869 107.142 11.0279 106.19 9.12346 104.444C6.58492 102.063 3.33169 100.872 0 100.872V103.73C2.61806 103.73 5.07705 104.682 6.98149 106.429C9.44049 108.73 12.6142 110 16.106 110C19.5173 110 22.7694 108.73 25.2295 106.429C27.0544 104.682 29.5929 103.73 32.211 103.73C34.8301 103.73 37.2891 104.682 39.1936 106.429C41.6526 108.73 44.8263 110 48.317 110C51.7282 110 54.9826 108.73 57.4416 106.429C59.2665 104.682 61.805 103.73 64.4231 103.73C67.0411 103.73 69.5012 104.682 71.4056 106.429C73.8646 108.73 77.0384 110 80.5291 110C83.9414 110 87.1936 108.73 89.6537 106.429C91.4786 104.682 94.0171 103.73 96.6351 103.73C99.2532 103.73 101.713 104.682 103.618 106.429C106.077 108.73 109.25 110 112.741 110C116.153 110 119.406 108.73 121.865 106.429C123.691 104.682 126.15 103.73 128.847 103.73V100.872C125.277 100.872 122.024 102.063 119.485 104.444Z" fill="white"/>
</g>
</svg>
