<svg width="50" height="44" viewBox="0 0 50 44" fill="none" xmlns="http://www.w3.org/2000/svg">
<g id="fa6-solid:helmet-safety" clip-path="url(#clip0_371_186)">
<path id="Vector" d="M22 2.75C20.4789 2.75 19.25 3.97891 19.25 5.5V14.257C19.25 14.7383 18.8633 15.125 18.382 15.125C18.0727 15.125 17.7805 14.9617 17.6258 14.6867L13.5008 7.47656C7.13281 10.6133 2.75 17.1703 2.75 24.75V30.25H46.75V24.5438C46.6727 17.05 42.307 10.5875 35.9992 7.47656L31.8742 14.6867C31.7195 14.9617 31.4273 15.125 31.118 15.125C30.6367 15.125 30.25 14.7383 30.25 14.257V5.5C30.25 3.97891 29.0211 2.75 27.5 2.75H22ZM1.42656 33C0.635938 33 0 33.6359 0 34.4266C0 34.8305 0.171875 35.2172 0.498438 35.4492C2.36328 36.8156 9.60781 41.25 24.75 41.25C39.8922 41.25 47.1367 36.8156 49.0016 35.4492C49.3281 35.2086 49.5 34.8305 49.5 34.4266C49.5 33.6359 48.8641 33 48.0734 33H1.42656Z" fill="white"/>
</g>
<defs>
<clipPath id="clip0_371_186">
<rect width="49.5" height="44" fill="white"/>
</clipPath>
</defs>
</svg>
