<svg width="89" height="92" viewBox="0 0 89 92" fill="none" xmlns="http://www.w3.org/2000/svg">
<g id="Vector">
<mask id="path-1-inside-1_371_189" fill="white">
<path d="M60.1794 35.0688L108.867 35.0688L108.867 83.7414L60.1794 83.7414L60.1794 35.0688ZM59.0473 33.9367L59.0473 84.8735L110 84.8734L110 33.9367L59.0473 33.9367ZM9.22662 -15.868L57.9143 -15.868L57.9143 32.8047L9.22662 32.8047L9.22662 -15.868ZM8.09452 -17.0001L8.09452 33.9367L59.0473 33.9367L59.0473 -17.0001L8.09452 -17.0001ZM1.1321 41.7096L49.8198 41.7096L49.8198 90.3198C36.9247 90.0046 24.8464 84.9115 15.7258 75.7304C6.60516 66.6123 1.44643 54.5383 1.1321 41.7096ZM-2.22379e-06 40.5775C-9.95069e-07 68.6874 22.8344 91.4519 50.9527 91.4519L50.9527 40.5775L-2.22379e-06 40.5775Z"/>
</mask>
<path d="M60.1794 35.0688L108.867 35.0688L108.867 83.7414L60.1794 83.7414L60.1794 35.0688ZM59.0473 33.9367L59.0473 84.8735L110 84.8734L110 33.9367L59.0473 33.9367ZM9.22662 -15.868L57.9143 -15.868L57.9143 32.8047L9.22662 32.8047L9.22662 -15.868ZM8.09452 -17.0001L8.09452 33.9367L59.0473 33.9367L59.0473 -17.0001L8.09452 -17.0001ZM1.1321 41.7096L49.8198 41.7096L49.8198 90.3198C36.9247 90.0046 24.8464 84.9115 15.7258 75.7304C6.60516 66.6123 1.44643 54.5383 1.1321 41.7096ZM-2.22379e-06 40.5775C-9.95069e-07 68.6874 22.8344 91.4519 50.9527 91.4519L50.9527 40.5775L-2.22379e-06 40.5775Z" fill="white"/>
<path d="M60.1794 35.0688L60.1794 33.0688L58.1794 33.0688L58.1794 35.0688L60.1794 35.0688ZM108.867 35.0688L110.867 35.0688L110.867 33.0688L108.867 33.0688L108.867 35.0688ZM108.867 83.7414L108.867 85.7414L110.867 85.7414L110.867 83.7414L108.867 83.7414ZM60.1794 83.7414L58.1794 83.7414L58.1794 85.7414L60.1794 85.7414L60.1794 83.7414ZM59.0473 84.8735L57.0473 84.8735L57.0473 86.8735L59.0473 86.8735L59.0473 84.8735ZM110 84.8734L110 86.8734L112 86.8734L112 84.8734L110 84.8734ZM110 33.9367L112 33.9367L112 31.9367L110 31.9367L110 33.9367ZM9.22662 -15.868L9.22662 -17.868L7.22662 -17.868L7.22662 -15.868L9.22662 -15.868ZM57.9143 -15.868L59.9143 -15.868L59.9143 -17.868L57.9143 -17.868L57.9143 -15.868ZM57.9143 32.8047L57.9143 34.8047L59.9143 34.8047L59.9143 32.8047L57.9143 32.8047ZM9.22662 32.8047L7.22662 32.8047L7.22662 34.8047L9.22662 34.8047L9.22662 32.8047ZM8.09452 -17.0001L8.09452 -19.0001L6.09452 -19.0001L6.09452 -17.0001L8.09452 -17.0001ZM8.09452 33.9367L6.09452 33.9367L6.09452 35.9367L8.09452 35.9367L8.09452 33.9367ZM59.0473 -17.0001L61.0473 -17.0001L61.0473 -19.0001L59.0473 -19.0001L59.0473 -17.0001ZM1.1321 41.7096L1.1321 39.7096L-0.917504 39.7096L-0.8673 41.7586L1.1321 41.7096ZM49.8198 41.7096L51.8198 41.7096L51.8198 39.7096L49.8198 39.7096L49.8198 41.7096ZM49.8198 90.3198L49.7709 92.3192L51.8198 92.3693L51.8198 90.3198L49.8198 90.3198ZM15.7258 75.7304L17.1447 74.3208L17.1398 74.316L15.7258 75.7304ZM-2.22379e-06 40.5775L-2.31121e-06 38.5775L-2 38.5775L-2 40.5775L-2.22379e-06 40.5775ZM50.9527 91.4519L50.9527 93.4519L52.9527 93.4519L52.9527 91.4519L50.9527 91.4519ZM50.9527 40.5775L52.9527 40.5775L52.9527 38.5775L50.9527 38.5775L50.9527 40.5775ZM60.1794 37.0688L108.867 37.0688L108.867 33.0688L60.1794 33.0688L60.1794 37.0688ZM106.867 35.0688L106.867 83.7414L110.867 83.7414L110.867 35.0688L106.867 35.0688ZM108.867 81.7414L60.1794 81.7414L60.1794 85.7414L108.867 85.7414L108.867 81.7414ZM62.1794 83.7414L62.1794 35.0688L58.1794 35.0688L58.1794 83.7414L62.1794 83.7414ZM57.0473 33.9367L57.0473 84.8735L61.0473 84.8734L61.0473 33.9367L57.0473 33.9367ZM59.0473 86.8735L110 86.8734L110 82.8734L59.0473 82.8735L59.0473 86.8735ZM112 84.8734L112 33.9367L108 33.9367L108 84.8734L112 84.8734ZM110 31.9367L59.0473 31.9367L59.0473 35.9367L110 35.9367L110 31.9367ZM9.22662 -13.868L57.9143 -13.868L57.9143 -17.868L9.22662 -17.868L9.22662 -13.868ZM55.9143 -15.868L55.9143 32.8047L59.9143 32.8047L59.9143 -15.868L55.9143 -15.868ZM57.9143 30.8047L9.22662 30.8047L9.22662 34.8047L57.9143 34.8047L57.9143 30.8047ZM11.2266 32.8047L11.2266 -15.868L7.22662 -15.868L7.22662 32.8047L11.2266 32.8047ZM6.09452 -17.0001L6.09452 33.9367L10.0945 33.9367L10.0945 -17.0001L6.09452 -17.0001ZM8.09452 35.9367L59.0473 35.9367L59.0473 31.9367L8.09452 31.9367L8.09452 35.9367ZM61.0473 33.9367L61.0473 -17.0001L57.0473 -17.0001L57.0473 33.9367L61.0473 33.9367ZM59.0473 -19.0001L8.09452 -19.0001L8.09452 -15.0001L59.0473 -15.0001L59.0473 -19.0001ZM1.1321 43.7096L49.8198 43.7096L49.8198 39.7096L1.1321 39.7096L1.1321 43.7096ZM47.8198 41.7096L47.8198 90.3198L51.8198 90.3198L51.8198 41.7096L47.8198 41.7096ZM49.8687 88.3204C37.4788 88.0176 25.8945 83.1287 17.1447 74.3208L14.3069 77.1399C23.7984 86.6943 36.3706 91.9917 49.7709 92.3192L49.8687 88.3204ZM17.1398 74.316C8.38272 65.5613 3.43326 53.9764 3.1315 41.6607L-0.8673 41.7586C-0.540403 55.1003 4.82759 67.6633 14.3118 77.1448L17.1398 74.316ZM-2 40.5775C-2 69.7957 21.7336 93.4519 50.9527 93.4519L50.9527 89.4519C23.9352 89.4519 2 67.579 2 40.5775L-2 40.5775ZM52.9527 91.4519L52.9527 40.5775L48.9527 40.5775L48.9527 91.4519L52.9527 91.4519ZM50.9527 38.5775L-2.31121e-06 38.5775L-2.13637e-06 42.5775L50.9527 42.5775L50.9527 38.5775Z" fill="white" mask="url(#path-1-inside-1_371_189)"/>
</g>
</svg>
