<svg width="54" height="54" viewBox="0 0 54 54" fill="none" xmlns="http://www.w3.org/2000/svg">
<path d="M27 0C34.1608 0 41.0284 2.84464 46.0919 7.90812C51.1554 12.9716 54 19.8392 54 27C54 34.1608 51.1554 41.0284 46.0919 46.0919C41.0284 51.1554 34.1608 54 27 54C19.8392 54 12.9716 51.1554 7.90812 46.0919C2.84464 41.0284 0 34.1608 0 27C0 19.8392 2.84464 12.9716 7.90812 7.90812C12.9716 2.84464 19.8392 0 27 0V0ZM15.1875 25.3125C14.7399 25.3125 14.3107 25.4903 13.9943 25.8068C13.6778 26.1232 13.5 26.5524 13.5 27C13.5 27.4476 13.6778 27.8768 13.9943 28.1932C14.3107 28.5097 14.7399 28.6875 15.1875 28.6875H34.7389L27.4928 35.9302C27.3359 36.0871 27.2114 36.2734 27.1265 36.4784C27.0416 36.6834 26.9979 36.9031 26.9979 37.125C26.9979 37.3469 27.0416 37.5666 27.1265 37.7716C27.2114 37.9766 27.3359 38.1629 27.4928 38.3198C27.6496 38.4766 27.8359 38.6011 28.0409 38.686C28.2459 38.7709 28.4656 38.8146 28.6875 38.8146C28.9094 38.8146 29.1291 38.7709 29.3341 38.686C29.5391 38.6011 29.7254 38.4766 29.8822 38.3198L40.0073 28.1947C40.1644 28.038 40.2891 27.8518 40.3742 27.6468C40.4592 27.4417 40.503 27.222 40.503 27C40.503 26.778 40.4592 26.5583 40.3742 26.3532C40.2891 26.1482 40.1644 25.962 40.0073 25.8053L29.8822 15.6803C29.7254 15.5234 29.5391 15.3989 29.3341 15.314C29.1291 15.2291 28.9094 15.1854 28.6875 15.1854C28.4656 15.1854 28.2459 15.2291 28.0409 15.314C27.8359 15.3989 27.6496 15.5234 27.4928 15.6803C27.3359 15.8371 27.2114 16.0234 27.1265 16.2284C27.0416 16.4334 26.9979 16.6531 26.9979 16.875C26.9979 17.0969 27.0416 17.3166 27.1265 17.5216C27.2114 17.7266 27.3359 17.9129 27.4928 18.0697L34.7389 25.3125H15.1875Z" fill="#7DD5FF"/>
</svg>
