<svg width="19" height="20" viewBox="0 0 19 20" fill="none" xmlns="http://www.w3.org/2000/svg">
<path d="M16.6249 17.125L13.1867 13.6868M13.1867 13.6868C13.7748 13.0987 14.2414 12.4005 14.5596 11.6321C14.8779 10.8637 15.0417 10.0401 15.0417 9.20834C15.0417 8.37662 14.8779 7.55303 14.5596 6.78462C14.2414 6.0162 13.7748 5.31801 13.1867 4.72989C12.5986 4.14177 11.9004 3.67524 11.132 3.35696C10.3636 3.03867 9.53998 2.87485 8.70825 2.87485C7.87653 2.87485 7.05294 3.03867 6.28453 3.35696C5.51611 3.67524 4.81791 4.14177 4.22979 4.72989C3.04203 5.91765 2.37476 7.5286 2.37476 9.20834C2.37476 10.8881 3.04203 12.499 4.22979 13.6868C5.41755 14.8746 7.0285 15.5418 8.70825 15.5418C10.388 15.5418 11.9989 14.8746 13.1867 13.6868Z" stroke="white" stroke-width="2" stroke-linecap="round" stroke-linejoin="round"/>
</svg>
