<svg width="211" height="73" viewBox="0 0 211 73" fill="none" xmlns="http://www.w3.org/2000/svg">
<g id="g2749">
<g id="g5291">
<path id="path5293" d="M9.91444 18.4272L3.56657 10.5086H3.00348V18.4272H0.494793V0.693609H3.00348V8.76582L9.68437 0.693609H12.6789L5.58885 9.09923L12.909 18.4272H9.91444Z" fill="white"/>
</g>
<g id="g5295">
<path id="path5297" d="M20.0772 13.7119L13.5754 0.693762H16.3662L21.434 10.8416L26.1693 0.693762H28.8313L20.3845 18.4274H17.8763L20.0772 13.7119Z" fill="white"/>
</g>
<g id="g5299">
<g id="Clip path group">
<g id="g5301">
<g id="g5307">
<path id="path5309" d="M33.4146 2.89769V8.53562H34.7966C36.5883 8.53562 37.5096 7.4076 37.5096 5.66538C37.5096 3.94839 36.5883 2.89769 34.7966 2.89769H33.4146ZM34.9248 10.739H33.4146V18.4274H30.906V0.693731H34.9248C38.2266 0.693731 40.1207 2.38495 40.1207 5.63961C40.1207 8.84272 37.996 10.739 34.9248 10.739Z" fill="white"/>
</g>
<g id="g5311">
<path id="path5313" d="M51.1025 16.4283C55.0698 16.4283 57.8091 13.558 57.8091 9.56033C57.8091 5.56261 55.0698 2.66713 51.1025 2.66713C47.1351 2.66713 44.4216 5.56261 44.4216 9.56033C44.4216 13.558 47.1351 16.4283 51.1025 16.4283ZM51.0767 0.334862C56.4266 0.334862 60.4454 4.20426 60.4454 9.53509C60.4454 14.8906 56.4524 18.7606 51.1025 18.7606C45.7784 18.7606 41.7853 14.8906 41.7853 9.56033C41.7853 4.20426 45.7784 0.334862 51.0767 0.334862Z" fill="white"/>
</g>
<g id="g5315">
<path id="path5317" d="M65.694 2.89769V8.53562H67.0759C68.8676 8.53562 69.789 7.4076 69.789 5.66538C69.789 3.94839 68.8676 2.89769 67.0759 2.89769H65.694ZM67.2036 10.739H65.694V18.4274H63.1847V0.693731H67.2036C70.506 0.693731 72.4001 2.38495 72.4001 5.63961C72.4001 8.84272 70.2754 10.739 67.2036 10.739Z" fill="white"/>
</g>
<g id="g5319">
<path id="path5321" d="M80.387 3.02588V18.4272H77.8783V3.02588H74.244V0.693609H84.0219V3.02588H80.387Z" fill="white"/>
</g>
<path id="path5323" d="M101.172 18.4272H98.6634V0.693548H101.172V18.4272ZM89.321 10.8419V16.2238H91.0612C92.8534 16.2238 93.7742 15.1468 93.7742 13.4813C93.7742 11.8411 92.8534 10.8419 91.0612 10.8419H89.321ZM91.1894 8.63798C94.4912 8.63798 96.3859 10.2777 96.3859 13.4555C96.3859 16.5819 94.2611 18.4272 91.1894 18.4272H86.8123V0.693548H89.321V8.63798H91.1894Z" fill="white"/>
<g id="g5325">
<path id="path5327" d="M9.91444 45.5027L3.56657 37.5846H3.00348V45.5027H0.494793V27.7696H3.00348V35.8418L9.68437 27.7696H12.6789L5.58885 36.1747L12.909 45.5027H9.91444Z" fill="white"/>
</g>
<g id="g5329">
<path id="path5331" d="M17.5432 29.9734V35.6108H18.9258C20.7169 35.6108 21.6388 34.4839 21.6388 32.7411C21.6388 31.0241 20.7169 29.9734 18.9258 29.9734H17.5432ZM19.0534 37.8148H17.5432V45.5026H15.0346V27.7695H19.0534C22.3552 27.7695 24.2493 29.4607 24.2493 32.7153C24.2493 35.919 22.1252 37.8148 19.0534 37.8148Z" fill="white"/>
</g>
<g id="g5333">
<path id="path5335" d="M29.2161 37.4818H34.5912L32.0316 31.1008H31.6733L29.2161 37.4818ZM37.8169 45.5024L35.4616 39.6342H28.3967L26.1443 45.5024H23.508L30.5466 27.7693H33.1835L40.5299 45.5024H37.8169Z" fill="white"/>
</g>
<g id="g5337">
<path id="path5339" d="M54.5579 44.7597C53.355 45.3235 51.7419 45.8362 49.8226 45.8362C44.2421 45.8362 40.5048 42.0178 40.5048 36.636C40.5048 31.3315 44.2421 27.4111 49.7711 27.4111C51.3837 27.4111 53.022 27.7439 54.3525 28.3077V30.8445C52.4074 29.7428 49.6687 29.3068 47.2881 30.1524C44.6776 31.1011 43.1417 33.5354 43.1417 36.636C43.1417 39.5062 44.5494 41.7875 46.8275 42.8382C49.3871 44.0419 52.3055 43.6323 54.5579 42.3255V44.7597Z" fill="white"/>
</g>
<g id="g5341">
<path id="path5343" d="M67.3829 45.5027H64.8742V37.5072H60.1904V45.5027H57.6817V27.7696H60.1904V35.124H64.8742V27.7696H67.3829V45.5027Z" fill="white"/>
</g>
<g id="g5345">
<path id="path5347" d="M79.4396 43.504C83.407 43.504 86.1463 40.6338 86.1463 36.636C86.1463 32.6383 83.407 29.7428 79.4396 29.7428C75.4723 29.7428 72.7587 32.6383 72.7587 36.636C72.7587 40.6338 75.4723 43.504 79.4396 43.504ZM79.4139 27.4106C84.7643 27.4106 88.7826 31.28 88.7826 36.6108C88.7826 41.9669 84.7895 45.8363 79.4396 45.8363C74.1155 45.8363 70.1224 41.9669 70.1224 36.636C70.1224 31.28 74.1155 27.4106 79.4139 27.4106Z" fill="white"/>
</g>
<g id="g5349">
<path id="path5351" d="M94.5427 37.9432C94.4655 39.8137 94.133 42.2228 92.7768 43.1451H98.6892V30.1271H94.85L94.5427 37.9432ZM100.814 45.5027H91.3943V48.6038H89.0652V43.1451C90.9851 42.9911 92.0346 41.5817 92.188 37.7123L92.5719 27.7696H101.198V43.1451H103.143V48.6038H100.814V45.5027Z" fill="white"/>
</g>
<g id="g5353">
<path id="path5355" d="M109.799 37.4818H115.174L112.615 31.1008H112.256L109.799 37.4818ZM118.4 45.5024L116.045 39.6342H108.98L106.728 45.5024H104.091L111.13 27.7693H113.767L121.113 45.5024H118.4Z" fill="white"/>
</g>
<g id="g5357">
<path id="path5359" d="M125.415 29.9734V35.6108H126.797C128.588 35.6108 129.51 34.4839 129.51 32.7411C129.51 31.0241 128.588 29.9734 126.797 29.9734H125.415ZM126.925 37.8148H125.415V45.5026H122.906V27.7695H126.925C130.227 27.7695 132.121 29.4607 132.121 32.7153C132.121 35.919 129.997 37.8148 126.925 37.8148Z" fill="white"/>
</g>
<g id="g5361">
<path id="path5363" d="M147.863 44.7597C146.661 45.3235 145.048 45.8362 143.128 45.8362C137.549 45.8362 133.811 42.0178 133.811 36.636C133.811 31.3315 137.549 27.4111 143.077 27.4111C144.69 27.4111 146.328 27.7439 147.658 28.3077V30.8445C145.713 29.7428 142.975 29.3068 140.594 30.1524C137.983 31.1011 136.448 33.5354 136.448 36.636C136.448 39.5062 137.855 41.7875 140.133 42.8382C142.693 44.0419 145.611 43.6323 147.863 42.3255V44.7597Z" fill="white"/>
</g>
<g id="g5365">
<path id="path5367" d="M160.406 45.5027L154.059 37.5846H153.495V45.5027H150.987V27.7696H153.495V35.8418L160.176 27.7696H163.171L156.081 36.1747L163.401 45.5027H160.406Z" fill="white"/>
</g>
<g id="g5369">
<path id="path5371" d="M171.926 43.504C175.893 43.504 178.632 40.6338 178.632 36.636C178.632 32.6383 175.893 29.7428 171.926 29.7428C167.958 29.7428 165.245 32.6383 165.245 36.636C165.245 40.6338 167.958 43.504 171.926 43.504ZM171.9 27.4106C177.25 27.4106 181.269 31.28 181.269 36.6108C181.269 41.9669 177.276 45.8363 171.926 45.8363C166.602 45.8363 162.609 41.9669 162.609 36.636C162.609 31.28 166.602 27.4106 171.9 27.4106Z" fill="white"/>
</g>
<g id="g5373">
<path id="path5375" d="M186.517 45.5027H184.009V27.7696H191.304V30.1013H186.517V45.5027Z" fill="white"/>
</g>
<g id="g5377">
<path id="path5379" d="M201.236 43.504C205.203 43.504 207.942 40.6338 207.942 36.636C207.942 32.6383 205.203 29.7428 201.236 29.7428C197.268 29.7428 194.555 32.6383 194.555 36.636C194.555 40.6338 197.268 43.504 201.236 43.504ZM201.21 27.4106C206.56 27.4106 210.578 31.28 210.578 36.6108C210.578 41.9669 206.586 45.8363 201.236 45.8363C195.911 45.8363 191.918 41.9669 191.918 36.636C191.918 31.28 195.911 27.4106 201.21 27.4106Z" fill="white"/>
</g>
<g id="g5381">
<path id="path5383" d="M9.91446 72.5786L3.56659 64.6599H3.0035V72.5786H0.494812V54.8449H3.0035V62.9172L9.68439 54.8449H12.6789L5.58887 63.2506L12.909 72.5786H9.91446Z" fill="white"/>
</g>
<g id="g5385">
<path id="path5387" d="M17.5432 57.0491V62.687H18.9258C20.7169 62.687 21.6388 61.559 21.6388 59.8168C21.6388 58.0998 20.7169 57.0491 18.9258 57.0491H17.5432ZM19.0534 64.8905H17.5432V72.5788H15.0346V54.8452H19.0534C22.3552 54.8452 24.2493 56.5369 24.2493 59.791C24.2493 62.9942 22.1252 64.8905 19.0534 64.8905Z" fill="white"/>
</g>
<g id="g5389">
<path id="path5391" d="M29.2161 64.5577H34.5912L32.0316 58.1767H31.6733L29.2161 64.5577ZM37.8169 72.5784L35.4616 66.7101H28.3967L26.1443 72.5784H23.508L30.5466 54.8448H33.1835L40.5299 72.5784H37.8169Z" fill="white"/>
</g>
<g id="g5393">
<path id="path5395" d="M51.4353 62.687V57.0491H48.3378C46.4694 57.0491 45.5224 58.1255 45.5224 59.8678C45.5224 61.5847 46.4694 62.687 48.2611 62.687H51.4353ZM53.9435 54.8451V72.5787H51.4353V64.8136H48.3635L43.9355 72.5787H41.1705L45.9321 64.404C43.8074 63.5836 42.9112 61.8929 42.9112 59.842C42.9112 56.5621 44.9078 54.8451 48.2611 54.8451H53.9435Z" fill="white"/>
</g>
</g>
</g>
</g>
</g>
</svg>
