<svg width="43" height="42" viewBox="0 0 43 42" fill="none" xmlns="http://www.w3.org/2000/svg">
<path d="M21.7468 0C10.2361 0 0.894043 9.408 0.894043 21C0.894043 32.592 10.2361 42 21.7468 42C33.2576 42 42.5996 32.592 42.5996 21C42.5996 9.408 33.2576 0 21.7468 0ZM31.4225 14.28C31.1097 17.598 29.7543 25.662 29.0662 29.379C28.7742 30.954 28.1904 31.479 27.6482 31.542C26.4387 31.647 25.5212 30.744 24.3534 29.967C22.5184 28.749 21.4758 27.993 19.7033 26.817C17.6388 25.452 18.9734 24.696 20.162 23.478C20.4748 23.163 25.8131 18.27 25.9174 17.829C25.9319 17.7622 25.93 17.6929 25.9118 17.627C25.8936 17.5611 25.8597 17.5007 25.8131 17.451C25.688 17.346 25.5212 17.388 25.3752 17.409C25.1875 17.451 22.2682 19.404 16.5753 23.268C15.7412 23.835 14.9905 24.129 14.3232 24.108C13.5725 24.087 12.1546 23.688 11.0911 23.331C9.77733 22.911 8.75555 22.68 8.83896 21.945C8.88066 21.567 9.40198 21.189 10.3821 20.79C16.4711 18.123 20.5165 16.359 22.5392 15.519C28.3363 13.083 29.5249 12.663 30.3173 12.663C30.4842 12.663 30.8804 12.705 31.1306 12.915C31.3391 13.083 31.4017 13.314 31.4225 13.482C31.4017 13.608 31.4434 13.986 31.4225 14.28Z" fill="white"/>
</svg>
