<svg width="40" height="46" viewBox="0 0 40 46" fill="none" xmlns="http://www.w3.org/2000/svg">
<rect width="40" height="46" fill="#1E1E1E"/>
<g id="home_fixes" clip-path="url(#clip0_371_2)">
<rect width="1728" height="5287" transform="translate(-1367 -5176)" fill="white"/>
<g id="Footer">
<path id="Rectangle 5" d="M-1367 -563H361V111H-1367V-563Z" fill="#1E469D"/>
</g>
<g id="Group 62">
<g id="Footer_2">
<path id="Rectangle 5_2" d="M-1367 -563H361V111H-1367V-563Z" fill="#1E469D"/>
</g>
<g id="fa-brands:odnoklassniki-square">
<path id="Vector" d="M16.4464 15.9113C16.4464 13.9258 18.0446 12.3176 20 12.3176C21.9554 12.3176 23.5536 13.9258 23.5536 15.9113C23.5536 17.8879 21.9554 19.4871 20 19.4871C18.0446 19.4871 16.4464 17.8789 16.4464 15.9113ZM40 7.1875V38.8125C40 41.1934 38.0804 43.125 35.7143 43.125H4.28571C1.91964 43.125 0 41.1934 0 38.8125V7.1875C0 4.80664 1.91964 2.875 4.28571 2.875H35.7143C38.0804 2.875 40 4.80664 40 7.1875ZM12.7589 15.9113C12.7589 19.9184 16.0089 23.1797 20 23.1797C23.9911 23.1797 27.2411 19.9273 27.2411 15.9113C27.2411 11.8863 23.9911 8.625 20 8.625C16.0089 8.625 12.7589 11.8773 12.7589 15.9113ZM28.3393 24.0602C27.9286 23.2426 26.7946 22.5508 25.2946 23.7367C25.2946 23.7367 23.2679 25.3539 20 25.3539C16.7321 25.3539 14.7054 23.7367 14.7054 23.7367C13.2054 22.5508 12.0714 23.2426 11.6607 24.0602C10.9554 25.5066 11.7589 26.1895 13.5714 27.3844C15.1161 28.3816 17.25 28.75 18.625 28.8938L17.4732 30.0527C15.8482 31.6699 14.3036 33.2422 13.2143 34.3383C11.6429 35.9195 14.1696 38.4531 15.75 36.9078L20.0089 32.6043C21.6339 34.2395 23.1964 35.8117 24.2679 36.9078C25.8393 38.4531 28.375 35.9465 26.8214 34.3383L22.5625 30.0527L21.4018 28.8938C22.7857 28.75 24.8929 28.3637 26.4196 27.3844C28.2411 26.1895 29.0357 25.4977 28.3393 24.0602Z" fill="white"/>
</g>
</g>
</g>
<defs>
<clipPath id="clip0_371_2">
<rect width="1728" height="5287" fill="white" transform="translate(-1367 -5176)"/>
</clipPath>
</defs>
</svg>
