<svg width="41" height="42" viewBox="0 0 41 42" fill="none" xmlns="http://www.w3.org/2000/svg">
<path d="M20.0187 0.839844C8.96253 0.839844 0 9.86564 0 20.9998C0 32.134 8.96253 41.1598 20.0187 41.1598C31.0748 41.1598 40.0374 32.134 40.0374 20.9998C40.0374 9.86564 31.0748 0.839844 20.0187 0.839844ZM27.7175 23.5849C27.7175 23.5849 29.4879 25.3447 29.9238 26.1616C29.9363 26.1784 29.9425 26.1952 29.9467 26.2036C30.1239 26.5039 30.1657 26.737 30.0781 26.9113C29.9321 27.2011 29.4316 27.3439 29.2606 27.3565H26.1327C25.9159 27.3565 25.4613 27.2998 24.9107 26.9176C24.4874 26.6194 24.0704 26.1301 23.6638 25.6534C23.0569 24.9436 22.5314 24.3304 22.0018 24.3304C21.9345 24.3303 21.8676 24.341 21.8037 24.3619C21.4033 24.4921 20.8903 25.0675 20.8903 26.6005C20.8903 27.0793 20.515 27.3544 20.2502 27.3544H18.8176C18.3296 27.3544 15.7877 27.1822 13.5355 24.7903C10.7788 21.8608 8.29733 15.985 8.27647 15.9304C8.12008 15.5503 8.4433 15.3466 8.79571 15.3466H11.9549C12.3761 15.3466 12.5138 15.6049 12.6097 15.8338C12.7223 16.1005 13.1352 17.161 13.8129 18.3538C14.9118 20.2984 15.5854 21.088 16.1255 21.088C16.2267 21.0868 16.3262 21.0609 16.4153 21.0124C17.1201 20.6176 16.9888 18.0871 16.9575 17.5621C16.9575 17.4634 16.9554 16.4302 16.5947 15.9346C16.3361 15.5755 15.8961 15.439 15.6292 15.3886C15.7372 15.2385 15.8795 15.1168 16.0441 15.0337C16.5279 14.7901 17.3996 14.7544 18.265 14.7544H18.7467C19.685 14.767 19.9269 14.8279 20.2668 14.914C20.955 15.0799 20.9696 15.5272 20.9091 17.0581C20.8903 17.4928 20.8716 17.9842 20.8716 18.5638C20.8716 18.6898 20.8653 18.8242 20.8653 18.967C20.8445 19.7461 20.8194 20.6302 21.3658 20.9935C21.437 21.0385 21.5194 21.0625 21.6035 21.0628C21.7933 21.0628 22.3646 21.0628 23.9119 18.3895C24.3891 17.5291 24.8038 16.6349 25.1526 15.7141C25.1839 15.6595 25.2757 15.4915 25.3841 15.4264C25.4641 15.3854 25.5529 15.3645 25.6427 15.3655H29.3566C29.7611 15.3655 30.0385 15.4264 30.0906 15.5839C30.1823 15.8338 30.0739 16.5961 28.3786 18.9082L27.6216 19.9141C26.0848 21.9427 26.0848 22.0456 27.7175 23.5849Z" fill="white"/>
</svg>
